<svg xmlns="http://www.w3.org/2000/svg" width="155" height="53" viewBox="0 0 155 53" shape-rendering="crispEdges"><rect x="0" y="0" width="8" height="1" fill="#d2b795"/><rect x="11" y="0" width="3" height="1" fill="#d2b795"/><rect x="33" y="0" width="19" height="1" fill="#d2b795"/><rect x="71" y="0" width="2" height="1" fill="#d2b795"/><rect x="77" y="0" width="50" height="1" fill="#d2b795"/><rect x="143" y="0" width="3" height="1" fill="#d2b795"/><rect x="153" y="0" width="1" height="1" fill="#d2b795"/><rect x="1" y="1" width="14" height="1" fill="#d2b795"/><rect x="33" y="1" width="21" height="1" fill="#d2b795"/><rect x="71" y="1" width="55" height="1" fill="#d2b795"/><rect x="144" y="1" width="1" height="1" fill="#d2b795"/><rect x="153" y="1" width="1" height="1" fill="#d2b795"/><rect x="1" y="2" width="14" height="1" fill="#d2b795"/><rect x="32" y="2" width="23" height="1" fill="#d2b795"/><rect x="71" y="2" width="53" height="1" fill="#d2b795"/><rect x="144" y="2" width="1" height="1" fill="#d2b795"/><rect x="1" y="3" width="15" height="1" fill="#d2b795"/><rect x="32" y="3" width="23" height="1" fill="#d2b795"/><rect x="69" y="3" width="53" height="1" fill="#d2b795"/><rect x="144" y="3" width="1" height="1" fill="#d2b795"/><rect x="1" y="4" width="15" height="1" fill="#d2b795"/><rect x="32" y="4" width="24" height="1" fill="#d2b795"/><rect x="68" y="4" width="38" height="1" fill="#d2b795"/><rect x="110" y="4" width="7" height="1" fill="#d2b795"/><rect x="144" y="4" width="1" height="1" fill="#d2b795"/><rect x="1" y="5" width="14" height="1" fill="#d2b795"/><rect x="33" y="5" width="23" height="1" fill="#d2b795"/><rect x="67" y="5" width="39" height="1" fill="#d2b795"/><rect x="130" y="5" width="18" height="1" fill="#d2b795"/><rect x="0" y="6" width="14" height="1" fill="#d2b795"/><rect x="33" y="6" width="28" height="1" fill="#d2b795"/><rect x="66" y="6" width="40" height="1" fill="#d2b795"/><rect x="125" y="6" width="26" height="1" fill="#d2b795"/><rect x="0" y="7" width="14" height="1" fill="#d2b795"/><rect x="34" y="7" width="27" height="1" fill="#d2b795"/><rect x="66" y="7" width="39" height="1" fill="#d2b795"/><rect x="120" y="7" width="32" height="1" fill="#d2b795"/><rect x="0" y="8" width="14" height="1" fill="#d2b795"/><rect x="34" y="8" width="27" height="1" fill="#d2b795"/><rect x="65" y="8" width="38" height="1" fill="#d2b795"/><rect x="116" y="8" width="37" height="1" fill="#d2b795"/><rect x="0" y="9" width="14" height="1" fill="#d2b795"/><rect x="34" y="9" width="27" height="1" fill="#d2b795"/><rect x="65" y="9" width="38" height="1" fill="#d2b795"/><rect x="111" y="9" width="43" height="1" fill="#d2b795"/><rect x="0" y="10" width="14" height="1" fill="#d2b795"/><rect x="33" y="10" width="28" height="1" fill="#d2b795"/><rect x="65" y="10" width="38" height="1" fill="#d2b795"/><rect x="106" y="10" width="48" height="1" fill="#d2b795"/><rect x="0" y="11" width="14" height="1" fill="#d2b795"/><rect x="33" y="11" width="27" height="1" fill="#d2b795"/><rect x="65" y="11" width="90" height="1" fill="#d2b795"/><rect x="0" y="12" width="14" height="1" fill="#d2b795"/><rect x="32" y="12" width="27" height="1" fill="#d2b795"/><rect x="66" y="12" width="89" height="1" fill="#d2b795"/><rect x="1" y="13" width="15" height="1" fill="#d2b795"/><rect x="31" y="13" width="27" height="1" fill="#d2b795"/><rect x="67" y="13" width="88" height="1" fill="#d2b795"/><rect x="5" y="14" width="12" height="1" fill="#d2b795"/><rect x="29" y="14" width="27" height="1" fill="#d2b795"/><rect x="68" y="14" width="87" height="1" fill="#d2b795"/><rect x="5" y="15" width="13" height="1" fill="#d2b795"/><rect x="29" y="15" width="26" height="1" fill="#d2b795"/><rect x="70" y="15" width="85" height="1" fill="#d2b795"/><rect x="5" y="16" width="14" height="1" fill="#d2b795"/><rect x="30" y="16" width="25" height="1" fill="#d2b795"/><rect x="73" y="16" width="82" height="1" fill="#d2b795"/><rect x="5" y="17" width="15" height="1" fill="#d2b795"/><rect x="30" y="17" width="25" height="1" fill="#d2b795"/><rect x="79" y="17" width="75" height="1" fill="#d2b795"/><rect x="2" y="18" width="20" height="1" fill="#d2b795"/><rect x="30" y="18" width="26" height="1" fill="#d2b795"/><rect x="80" y="18" width="74" height="1" fill="#d2b795"/><rect x="3" y="19" width="20" height="1" fill="#d2b795"/><rect x="29" y="19" width="27" height="1" fill="#d2b795"/><rect x="80" y="19" width="73" height="1" fill="#d2b795"/><rect x="4" y="20" width="20" height="1" fill="#d2b795"/><rect x="29" y="20" width="27" height="1" fill="#d2b795"/><rect x="80" y="20" width="72" height="1" fill="#d2b795"/><rect x="6" y="21" width="19" height="1" fill="#d2b795"/><rect x="28" y="21" width="28" height="1" fill="#d2b795"/><rect x="73" y="21" width="77" height="1" fill="#d2b795"/><rect x="6" y="22" width="51" height="1" fill="#d2b795"/><rect x="64" y="22" width="84" height="1" fill="#d2b795"/><rect x="6" y="23" width="140" height="1" fill="#d2b795"/><rect x="7" y="24" width="135" height="1" fill="#d2b795"/><rect x="9" y="25" width="110" height="1" fill="#d2b795"/><rect x="126" y="25" width="8" height="1" fill="#d2b795"/><rect x="10" y="26" width="109" height="1" fill="#d2b795"/><rect x="10" y="27" width="109" height="1" fill="#d2b795"/><rect x="10" y="28" width="110" height="1" fill="#d2b795"/><rect x="12" y="29" width="67" height="1" fill="#d2b795"/><rect x="82" y="29" width="39" height="1" fill="#d2b795"/><rect x="141" y="29" width="4" height="1" fill="#d2b795"/><rect x="14" y="30" width="63" height="1" fill="#d2b795"/><rect x="87" y="30" width="35" height="1" fill="#d2b795"/><rect x="131" y="30" width="6" height="1" fill="#d2b795"/><rect x="140" y="30" width="6" height="1" fill="#d2b795"/><rect x="15" y="31" width="61" height="1" fill="#d2b795"/><rect x="87" y="31" width="59" height="1" fill="#d2b795"/><rect x="15" y="32" width="59" height="1" fill="#d2b795"/><rect x="87" y="32" width="59" height="1" fill="#d2b795"/><rect x="15" y="33" width="58" height="1" fill="#d2b795"/><rect x="86" y="33" width="61" height="1" fill="#d2b795"/><rect x="16" y="34" width="55" height="1" fill="#d2b795"/><rect x="85" y="34" width="67" height="1" fill="#d2b795"/><rect x="23" y="35" width="47" height="1" fill="#d2b795"/><rect x="86" y="35" width="13" height="1" fill="#d2b795"/><rect x="103" y="35" width="51" height="1" fill="#d2b795"/><rect x="24" y="36" width="44" height="1" fill="#d2b795"/><rect x="87" y="36" width="12" height="1" fill="#d2b795"/><rect x="104" y="36" width="50" height="1" fill="#d2b795"/><rect x="25" y="37" width="41" height="1" fill="#d2b795"/><rect x="88" y="37" width="11" height="1" fill="#d2b795"/><rect x="105" y="37" width="49" height="1" fill="#d2b795"/><rect x="25" y="38" width="40" height="1" fill="#d2b795"/><rect x="88" y="38" width="11" height="1" fill="#d2b795"/><rect x="106" y="38" width="48" height="1" fill="#d2b795"/><rect x="25" y="39" width="38" height="1" fill="#d2b795"/><rect x="88" y="39" width="12" height="1" fill="#d2b795"/><rect x="108" y="39" width="47" height="1" fill="#d2b795"/><rect x="0" y="40" width="6" height="1" fill="#d2b795"/><rect x="22" y="40" width="39" height="1" fill="#d2b795"/><rect x="86" y="40" width="16" height="1" fill="#d2b795"/><rect x="109" y="40" width="46" height="1" fill="#d2b795"/><rect x="0" y="41" width="7" height="1" fill="#d2b795"/><rect x="20" y="41" width="38" height="1" fill="#d2b795"/><rect x="83" y="41" width="20" height="1" fill="#d2b795"/><rect x="111" y="41" width="18" height="1" fill="#d2b795"/><rect x="136" y="41" width="19" height="1" fill="#d2b795"/><rect x="0" y="42" width="8" height="1" fill="#d2b795"/><rect x="18" y="42" width="32" height="1" fill="#d2b795"/><rect x="81" y="42" width="23" height="1" fill="#d2b795"/><rect x="137" y="42" width="18" height="1" fill="#d2b795"/><rect x="0" y="43" width="8" height="1" fill="#d2b795"/><rect x="16" y="43" width="30" height="1" fill="#d2b795"/><rect x="62" y="43" width="8" height="1" fill="#d2b795"/><rect x="79" y="43" width="25" height="1" fill="#d2b795"/><rect x="138" y="43" width="17" height="1" fill="#d2b795"/><rect x="0" y="44" width="45" height="1" fill="#d2b795"/><rect x="60" y="44" width="11" height="1" fill="#d2b795"/><rect x="77" y="44" width="26" height="1" fill="#d2b795"/><rect x="139" y="44" width="16" height="1" fill="#d2b795"/><rect x="0" y="45" width="44" height="1" fill="#d2b795"/><rect x="63" y="45" width="38" height="1" fill="#d2b795"/><rect x="140" y="45" width="15" height="1" fill="#d2b795"/><rect x="0" y="46" width="42" height="1" fill="#d2b795"/><rect x="64" y="46" width="34" height="1" fill="#d2b795"/><rect x="141" y="46" width="14" height="1" fill="#d2b795"/><rect x="0" y="47" width="39" height="1" fill="#d2b795"/><rect x="65" y="47" width="33" height="1" fill="#d2b795"/><rect x="142" y="47" width="13" height="1" fill="#d2b795"/><rect x="0" y="48" width="39" height="1" fill="#d2b795"/><rect x="66" y="48" width="32" height="1" fill="#d2b795"/><rect x="144" y="48" width="11" height="1" fill="#d2b795"/><rect x="0" y="49" width="38" height="1" fill="#d2b795"/><rect x="66" y="49" width="31" height="1" fill="#d2b795"/><rect x="144" y="49" width="11" height="1" fill="#d2b795"/><rect x="0" y="50" width="38" height="1" fill="#d2b795"/><rect x="66" y="50" width="30" height="1" fill="#d2b795"/><rect x="144" y="50" width="11" height="1" fill="#d2b795"/><rect x="0" y="51" width="37" height="1" fill="#d2b795"/><rect x="65" y="51" width="27" height="1" fill="#d2b795"/><rect x="142" y="51" width="13" height="1" fill="#d2b795"/><rect x="2" y="52" width="33" height="1" fill="#d2b795"/><rect x="64" y="52" width="26" height="1" fill="#d2b795"/><rect x="138" y="52" width="17" height="1" fill="#d2b795"/></svg>