<svg xmlns="http://www.w3.org/2000/svg" width="200" height="71" viewBox="0 0 200 71" shape-rendering="crispEdges"><rect x="44" y="0" width="2" height="1" fill="#d2b795"/><rect x="52" y="0" width="3" height="1" fill="#d2b795"/><rect x="57" y="0" width="9" height="1" fill="#d2b795"/><rect x="105" y="0" width="3" height="1" fill="#d2b795"/><rect x="120" y="0" width="12" height="1" fill="#d2b795"/><rect x="150" y="0" width="13" height="1" fill="#d2b795"/><rect x="189" y="0" width="1" height="1" fill="#d2b795"/><rect x="6" y="1" width="3" height="1" fill="#d2b795"/><rect x="43" y="1" width="4" height="1" fill="#d2b795"/><rect x="51" y="1" width="15" height="1" fill="#d2b795"/><rect x="100" y="1" width="2" height="1" fill="#d2b795"/><rect x="112" y="1" width="27" height="1" fill="#d2b795"/><rect x="148" y="1" width="13" height="1" fill="#d2b795"/><rect x="7" y="2" width="4" height="1" fill="#d2b795"/><rect x="43" y="2" width="1" height="1" fill="#d2b795"/><rect x="46" y="2" width="2" height="1" fill="#d2b795"/><rect x="49" y="2" width="17" height="1" fill="#d2b795"/><rect x="68" y="2" width="1" height="1" fill="#d2b795"/><rect x="95" y="2" width="2" height="1" fill="#d2b795"/><rect x="107" y="2" width="53" height="1" fill="#d2b795"/><rect x="7" y="3" width="4" height="1" fill="#d2b795"/><rect x="42" y="3" width="2" height="1" fill="#d2b795"/><rect x="46" y="3" width="20" height="1" fill="#d2b795"/><rect x="68" y="3" width="1" height="1" fill="#d2b795"/><rect x="93" y="3" width="1" height="1" fill="#d2b795"/><rect x="104" y="3" width="55" height="1" fill="#d2b795"/><rect x="7" y="4" width="7" height="1" fill="#d2b795"/><rect x="42" y="4" width="2" height="1" fill="#d2b795"/><rect x="46" y="4" width="4" height="1" fill="#d2b795"/><rect x="62" y="4" width="8" height="1" fill="#d2b795"/><rect x="90" y="4" width="66" height="1" fill="#d2b795"/><rect x="2" y="5" width="1" height="1" fill="#d2b795"/><rect x="6" y="5" width="8" height="1" fill="#d2b795"/><rect x="41" y="5" width="3" height="1" fill="#d2b795"/><rect x="46" y="5" width="5" height="1" fill="#d2b795"/><rect x="63" y="5" width="8" height="1" fill="#d2b795"/><rect x="89" y="5" width="44" height="1" fill="#d2b795"/><rect x="136" y="5" width="19" height="1" fill="#d2b795"/><rect x="2" y="6" width="13" height="1" fill="#d2b795"/><rect x="17" y="6" width="2" height="1" fill="#d2b795"/><rect x="42" y="6" width="2" height="1" fill="#d2b795"/><rect x="46" y="6" width="9" height="1" fill="#d2b795"/><rect x="66" y="6" width="5" height="1" fill="#d2b795"/><rect x="87" y="6" width="48" height="1" fill="#d2b795"/><rect x="144" y="6" width="4" height="1" fill="#d2b795"/><rect x="3" y="7" width="16" height="1" fill="#d2b795"/><rect x="42" y="7" width="2" height="1" fill="#d2b795"/><rect x="46" y="7" width="11" height="1" fill="#d2b795"/><rect x="67" y="7" width="4" height="1" fill="#d2b795"/><rect x="86" y="7" width="13" height="1" fill="#d2b795"/><rect x="101" y="7" width="34" height="1" fill="#d2b795"/><rect x="168" y="7" width="4" height="1" fill="#d2b795"/><rect x="186" y="7" width="2" height="1" fill="#d2b795"/><rect x="3" y="8" width="15" height="1" fill="#d2b795"/><rect x="43" y="8" width="2" height="1" fill="#d2b795"/><rect x="46" y="8" width="13" height="1" fill="#d2b795"/><rect x="68" y="8" width="3" height="1" fill="#d2b795"/><rect x="85" y="8" width="10" height="1" fill="#d2b795"/><rect x="102" y="8" width="24" height="1" fill="#d2b795"/><rect x="130" y="8" width="5" height="1" fill="#d2b795"/><rect x="165" y="8" width="3" height="1" fill="#d2b795"/><rect x="189" y="8" width="1" height="1" fill="#d2b795"/><rect x="0" y="9" width="18" height="1" fill="#d2b795"/><rect x="43" y="9" width="6" height="1" fill="#d2b795"/><rect x="54" y="9" width="3" height="1" fill="#d2b795"/><rect x="58" y="9" width="1" height="1" fill="#d2b795"/><rect x="60" y="9" width="6" height="1" fill="#d2b795"/><rect x="69" y="9" width="2" height="1" fill="#d2b795"/><rect x="72" y="9" width="5" height="1" fill="#d2b795"/><rect x="85" y="9" width="7" height="1" fill="#d2b795"/><rect x="105" y="9" width="18" height="1" fill="#d2b795"/><rect x="131" y="9" width="3" height="1" fill="#d2b795"/><rect x="158" y="9" width="3" height="1" fill="#d2b795"/><rect x="175" y="9" width="12" height="1" fill="#d2b795"/><rect x="192" y="9" width="1" height="1" fill="#d2b795"/><rect x="0" y="10" width="17" height="1" fill="#d2b795"/><rect x="44" y="10" width="5" height="1" fill="#d2b795"/><rect x="55" y="10" width="3" height="1" fill="#d2b795"/><rect x="60" y="10" width="11" height="1" fill="#d2b795"/><rect x="72" y="10" width="5" height="1" fill="#d2b795"/><rect x="84" y="10" width="8" height="1" fill="#d2b795"/><rect x="106" y="10" width="16" height="1" fill="#d2b795"/><rect x="131" y="10" width="2" height="1" fill="#d2b795"/><rect x="156" y="10" width="2" height="1" fill="#d2b795"/><rect x="169" y="10" width="20" height="1" fill="#d2b795"/><rect x="193" y="10" width="1" height="1" fill="#d2b795"/><rect x="1" y="11" width="16" height="1" fill="#d2b795"/><rect x="44" y="11" width="6" height="1" fill="#d2b795"/><rect x="54" y="11" width="2" height="1" fill="#d2b795"/><rect x="61" y="11" width="2" height="1" fill="#d2b795"/><rect x="64" y="11" width="9" height="1" fill="#d2b795"/><rect x="76" y="11" width="1" height="1" fill="#d2b795"/><rect x="84" y="11" width="7" height="1" fill="#d2b795"/><rect x="111" y="11" width="6" height="1" fill="#d2b795"/><rect x="150" y="11" width="42" height="1" fill="#d2b795"/><rect x="194" y="11" width="1" height="1" fill="#d2b795"/><rect x="1" y="12" width="16" height="1" fill="#d2b795"/><rect x="44" y="12" width="11" height="1" fill="#d2b795"/><rect x="56" y="12" width="1" height="1" fill="#d2b795"/><rect x="61" y="12" width="1" height="1" fill="#d2b795"/><rect x="66" y="12" width="2" height="1" fill="#d2b795"/><rect x="69" y="12" width="3" height="1" fill="#d2b795"/><rect x="75" y="12" width="2" height="1" fill="#d2b795"/><rect x="84" y="12" width="7" height="1" fill="#d2b795"/><rect x="145" y="12" width="40" height="1" fill="#d2b795"/><rect x="187" y="12" width="7" height="1" fill="#d2b795"/><rect x="1" y="13" width="16" height="1" fill="#d2b795"/><rect x="44" y="13" width="13" height="1" fill="#d2b795"/><rect x="60" y="13" width="2" height="1" fill="#d2b795"/><rect x="67" y="13" width="5" height="1" fill="#d2b795"/><rect x="75" y="13" width="2" height="1" fill="#d2b795"/><rect x="84" y="13" width="7" height="1" fill="#d2b795"/><rect x="141" y="13" width="41" height="1" fill="#d2b795"/><rect x="189" y="13" width="5" height="1" fill="#d2b795"/><rect x="0" y="14" width="17" height="1" fill="#d2b795"/><rect x="43" y="14" width="4" height="1" fill="#d2b795"/><rect x="48" y="14" width="15" height="1" fill="#d2b795"/><rect x="68" y="14" width="3" height="1" fill="#d2b795"/><rect x="74" y="14" width="3" height="1" fill="#d2b795"/><rect x="84" y="14" width="8" height="1" fill="#d2b795"/><rect x="135" y="14" width="45" height="1" fill="#d2b795"/><rect x="191" y="14" width="6" height="1" fill="#d2b795"/><rect x="0" y="15" width="18" height="1" fill="#d2b795"/><rect x="43" y="15" width="5" height="1" fill="#d2b795"/><rect x="49" y="15" width="14" height="1" fill="#d2b795"/><rect x="68" y="15" width="3" height="1" fill="#d2b795"/><rect x="74" y="15" width="3" height="1" fill="#d2b795"/><rect x="84" y="15" width="8" height="1" fill="#d2b795"/><rect x="132" y="15" width="25" height="1" fill="#d2b795"/><rect x="160" y="15" width="7" height="1" fill="#d2b795"/><rect x="168" y="15" width="12" height="1" fill="#d2b795"/><rect x="191" y="15" width="5" height="1" fill="#d2b795"/><rect x="197" y="15" width="1" height="1" fill="#d2b795"/><rect x="0" y="16" width="18" height="1" fill="#d2b795"/><rect x="41" y="16" width="8" height="1" fill="#d2b795"/><rect x="50" y="16" width="2" height="1" fill="#d2b795"/><rect x="54" y="16" width="1" height="1" fill="#d2b795"/><rect x="56" y="16" width="5" height="1" fill="#d2b795"/><rect x="62" y="16" width="14" height="1" fill="#d2b795"/><rect x="84" y="16" width="11" height="1" fill="#d2b795"/><rect x="125" y="16" width="25" height="1" fill="#d2b795"/><rect x="160" y="16" width="6" height="1" fill="#d2b795"/><rect x="168" y="16" width="6" height="1" fill="#d2b795"/><rect x="176" y="16" width="4" height="1" fill="#d2b795"/><rect x="192" y="16" width="6" height="1" fill="#d2b795"/><rect x="1" y="17" width="10" height="1" fill="#d2b795"/><rect x="12" y="17" width="7" height="1" fill="#d2b795"/><rect x="40" y="17" width="12" height="1" fill="#d2b795"/><rect x="56" y="17" width="18" height="1" fill="#d2b795"/><rect x="85" y="17" width="15" height="1" fill="#d2b795"/><rect x="118" y="17" width="26" height="1" fill="#d2b795"/><rect x="161" y="17" width="5" height="1" fill="#d2b795"/><rect x="168" y="17" width="5" height="1" fill="#d2b795"/><rect x="176" y="17" width="4" height="1" fill="#d2b795"/><rect x="193" y="17" width="5" height="1" fill="#d2b795"/><rect x="5" y="18" width="7" height="1" fill="#d2b795"/><rect x="13" y="18" width="6" height="1" fill="#d2b795"/><rect x="39" y="18" width="13" height="1" fill="#d2b795"/><rect x="58" y="18" width="1" height="1" fill="#d2b795"/><rect x="61" y="18" width="11" height="1" fill="#d2b795"/><rect x="86" y="18" width="18" height="1" fill="#d2b795"/><rect x="113" y="18" width="28" height="1" fill="#d2b795"/><rect x="161" y="18" width="5" height="1" fill="#d2b795"/><rect x="169" y="18" width="4" height="1" fill="#d2b795"/><rect x="176" y="18" width="5" height="1" fill="#d2b795"/><rect x="193" y="18" width="5" height="1" fill="#d2b795"/><rect x="6" y="19" width="7" height="1" fill="#d2b795"/><rect x="15" y="19" width="6" height="1" fill="#d2b795"/><rect x="37" y="19" width="12" height="1" fill="#d2b795"/><rect x="50" y="19" width="7" height="1" fill="#d2b795"/><rect x="62" y="19" width="9" height="1" fill="#d2b795"/><rect x="88" y="19" width="46" height="1" fill="#d2b795"/><rect x="161" y="19" width="5" height="1" fill="#d2b795"/><rect x="170" y="19" width="4" height="1" fill="#d2b795"/><rect x="178" y="19" width="4" height="1" fill="#d2b795"/><rect x="193" y="19" width="5" height="1" fill="#d2b795"/><rect x="7" y="20" width="6" height="1" fill="#d2b795"/><rect x="16" y="20" width="6" height="1" fill="#d2b795"/><rect x="37" y="20" width="12" height="1" fill="#d2b795"/><rect x="51" y="20" width="7" height="1" fill="#d2b795"/><rect x="61" y="20" width="4" height="1" fill="#d2b795"/><rect x="67" y="20" width="4" height="1" fill="#d2b795"/><rect x="89" y="20" width="42" height="1" fill="#d2b795"/><rect x="162" y="20" width="4" height="1" fill="#d2b795"/><rect x="170" y="20" width="4" height="1" fill="#d2b795"/><rect x="180" y="20" width="2" height="1" fill="#d2b795"/><rect x="193" y="20" width="5" height="1" fill="#d2b795"/><rect x="8" y="21" width="6" height="1" fill="#d2b795"/><rect x="18" y="21" width="5" height="1" fill="#d2b795"/><rect x="38" y="21" width="11" height="1" fill="#d2b795"/><rect x="52" y="21" width="3" height="1" fill="#d2b795"/><rect x="57" y="21" width="6" height="1" fill="#d2b795"/><rect x="64" y="21" width="7" height="1" fill="#d2b795"/><rect x="93" y="21" width="31" height="1" fill="#d2b795"/><rect x="164" y="21" width="2" height="1" fill="#d2b795"/><rect x="173" y="21" width="2" height="1" fill="#d2b795"/><rect x="192" y="21" width="6" height="1" fill="#d2b795"/><rect x="8" y="22" width="6" height="1" fill="#d2b795"/><rect x="19" y="22" width="6" height="1" fill="#d2b795"/><rect x="41" y="22" width="8" height="1" fill="#d2b795"/><rect x="57" y="22" width="5" height="1" fill="#d2b795"/><rect x="63" y="22" width="8" height="1" fill="#d2b795"/><rect x="99" y="22" width="16" height="1" fill="#d2b795"/><rect x="191" y="22" width="6" height="1" fill="#d2b795"/><rect x="8" y="23" width="7" height="1" fill="#d2b795"/><rect x="20" y="23" width="6" height="1" fill="#d2b795"/><rect x="40" y="23" width="9" height="1" fill="#d2b795"/><rect x="58" y="23" width="3" height="1" fill="#d2b795"/><rect x="62" y="23" width="9" height="1" fill="#d2b795"/><rect x="190" y="23" width="7" height="1" fill="#d2b795"/><rect x="3" y="24" width="13" height="1" fill="#d2b795"/><rect x="22" y="24" width="5" height="1" fill="#d2b795"/><rect x="38" y="24" width="6" height="1" fill="#d2b795"/><rect x="48" y="24" width="1" height="1" fill="#d2b795"/><rect x="62" y="24" width="9" height="1" fill="#d2b795"/><rect x="188" y="24" width="8" height="1" fill="#d2b795"/><rect x="3" y="25" width="13" height="1" fill="#d2b795"/><rect x="23" y="25" width="5" height="1" fill="#d2b795"/><rect x="38" y="25" width="5" height="1" fill="#d2b795"/><rect x="47" y="25" width="2" height="1" fill="#d2b795"/><rect x="61" y="25" width="10" height="1" fill="#d2b795"/><rect x="121" y="25" width="10" height="1" fill="#d2b795"/><rect x="187" y="25" width="8" height="1" fill="#d2b795"/><rect x="5" y="26" width="13" height="1" fill="#d2b795"/><rect x="24" y="26" width="5" height="1" fill="#d2b795"/><rect x="38" y="26" width="4" height="1" fill="#d2b795"/><rect x="47" y="26" width="1" height="1" fill="#d2b795"/><rect x="61" y="26" width="10" height="1" fill="#d2b795"/><rect x="109" y="26" width="31" height="1" fill="#d2b795"/><rect x="183" y="26" width="11" height="1" fill="#d2b795"/><rect x="7" y="27" width="12" height="1" fill="#d2b795"/><rect x="25" y="27" width="6" height="1" fill="#d2b795"/><rect x="36" y="27" width="5" height="1" fill="#d2b795"/><rect x="46" y="27" width="2" height="1" fill="#d2b795"/><rect x="61" y="27" width="11" height="1" fill="#d2b795"/><rect x="99" y="27" width="52" height="1" fill="#d2b795"/><rect x="175" y="27" width="18" height="1" fill="#d2b795"/><rect x="9" y="28" width="10" height="1" fill="#d2b795"/><rect x="26" y="28" width="5" height="1" fill="#d2b795"/><rect x="36" y="28" width="5" height="1" fill="#d2b795"/><rect x="45" y="28" width="2" height="1" fill="#d2b795"/><rect x="60" y="28" width="12" height="1" fill="#d2b795"/><rect x="94" y="28" width="97" height="1" fill="#d2b795"/><rect x="13" y="29" width="8" height="1" fill="#d2b795"/><rect x="27" y="29" width="6" height="1" fill="#d2b795"/><rect x="35" y="29" width="5" height="1" fill="#d2b795"/><rect x="44" y="29" width="6" height="1" fill="#d2b795"/><rect x="60" y="29" width="2" height="1" fill="#d2b795"/><rect x="63" y="29" width="10" height="1" fill="#d2b795"/><rect x="86" y="29" width="36" height="1" fill="#d2b795"/><rect x="123" y="29" width="66" height="1" fill="#d2b795"/><rect x="11" y="30" width="10" height="1" fill="#d2b795"/><rect x="28" y="30" width="5" height="1" fill="#d2b795"/><rect x="36" y="30" width="4" height="1" fill="#d2b795"/><rect x="43" y="30" width="8" height="1" fill="#d2b795"/><rect x="60" y="30" width="2" height="1" fill="#d2b795"/><rect x="64" y="30" width="9" height="1" fill="#d2b795"/><rect x="77" y="30" width="45" height="1" fill="#d2b795"/><rect x="127" y="30" width="60" height="1" fill="#d2b795"/><rect x="9" y="31" width="14" height="1" fill="#d2b795"/><rect x="28" y="31" width="6" height="1" fill="#d2b795"/><rect x="35" y="31" width="4" height="1" fill="#d2b795"/><rect x="43" y="31" width="8" height="1" fill="#d2b795"/><rect x="56" y="31" width="3" height="1" fill="#d2b795"/><rect x="60" y="31" width="2" height="1" fill="#d2b795"/><rect x="64" y="31" width="61" height="1" fill="#d2b795"/><rect x="130" y="31" width="53" height="1" fill="#d2b795"/><rect x="10" y="32" width="14" height="1" fill="#d2b795"/><rect x="29" y="32" width="10" height="1" fill="#d2b795"/><rect x="41" y="32" width="10" height="1" fill="#d2b795"/><rect x="56" y="32" width="6" height="1" fill="#d2b795"/><rect x="64" y="32" width="36" height="1" fill="#d2b795"/><rect x="101" y="32" width="26" height="1" fill="#d2b795"/><rect x="133" y="32" width="14" height="1" fill="#d2b795"/><rect x="152" y="32" width="24" height="1" fill="#d2b795"/><rect x="11" y="33" width="15" height="1" fill="#d2b795"/><rect x="29" y="33" width="10" height="1" fill="#d2b795"/><rect x="41" y="33" width="10" height="1" fill="#d2b795"/><rect x="55" y="33" width="7" height="1" fill="#d2b795"/><rect x="65" y="33" width="3" height="1" fill="#d2b795"/><rect x="69" y="33" width="29" height="1" fill="#d2b795"/><rect x="100" y="33" width="27" height="1" fill="#d2b795"/><rect x="135" y="33" width="13" height="1" fill="#d2b795"/><rect x="18" y="34" width="10" height="1" fill="#d2b795"/><rect x="30" y="34" width="18" height="1" fill="#d2b795"/><rect x="49" y="34" width="2" height="1" fill="#d2b795"/><rect x="54" y="34" width="8" height="1" fill="#d2b795"/><rect x="65" y="34" width="29" height="1" fill="#d2b795"/><rect x="97" y="34" width="13" height="1" fill="#d2b795"/><rect x="111" y="34" width="5" height="1" fill="#d2b795"/><rect x="117" y="34" width="12" height="1" fill="#d2b795"/><rect x="137" y="34" width="13" height="1" fill="#d2b795"/><rect x="16" y="35" width="14" height="1" fill="#d2b795"/><rect x="31" y="35" width="14" height="1" fill="#d2b795"/><rect x="46" y="35" width="3" height="1" fill="#d2b795"/><rect x="50" y="35" width="1" height="1" fill="#d2b795"/><rect x="54" y="35" width="8" height="1" fill="#d2b795"/><rect x="65" y="35" width="25" height="1" fill="#d2b795"/><rect x="95" y="35" width="11" height="1" fill="#d2b795"/><rect x="107" y="35" width="12" height="1" fill="#d2b795"/><rect x="120" y="35" width="10" height="1" fill="#d2b795"/><rect x="138" y="35" width="14" height="1" fill="#d2b795"/><rect x="14" y="36" width="31" height="1" fill="#d2b795"/><rect x="46" y="36" width="5" height="1" fill="#d2b795"/><rect x="53" y="36" width="9" height="1" fill="#d2b795"/><rect x="64" y="36" width="23" height="1" fill="#d2b795"/><rect x="95" y="36" width="10" height="1" fill="#d2b795"/><rect x="107" y="36" width="13" height="1" fill="#d2b795"/><rect x="121" y="36" width="11" height="1" fill="#d2b795"/><rect x="140" y="36" width="12" height="1" fill="#d2b795"/><rect x="14" y="37" width="30" height="1" fill="#d2b795"/><rect x="46" y="37" width="5" height="1" fill="#d2b795"/><rect x="52" y="37" width="11" height="1" fill="#d2b795"/><rect x="64" y="37" width="18" height="1" fill="#d2b795"/><rect x="93" y="37" width="9" height="1" fill="#d2b795"/><rect x="106" y="37" width="5" height="1" fill="#d2b795"/><rect x="114" y="37" width="8" height="1" fill="#d2b795"/><rect x="123" y="37" width="10" height="1" fill="#d2b795"/><rect x="141" y="37" width="12" height="1" fill="#d2b795"/><rect x="15" y="38" width="29" height="1" fill="#d2b795"/><rect x="46" y="38" width="5" height="1" fill="#d2b795"/><rect x="52" y="38" width="11" height="1" fill="#d2b795"/><rect x="64" y="38" width="17" height="1" fill="#d2b795"/><rect x="92" y="38" width="9" height="1" fill="#d2b795"/><rect x="105" y="38" width="3" height="1" fill="#d2b795"/><rect x="110" y="38" width="6" height="1" fill="#d2b795"/><rect x="117" y="38" width="16" height="1" fill="#d2b795"/><rect x="142" y="38" width="12" height="1" fill="#d2b795"/><rect x="182" y="38" width="3" height="1" fill="#d2b795"/><rect x="18" y="39" width="27" height="1" fill="#d2b795"/><rect x="47" y="39" width="16" height="1" fill="#d2b795"/><rect x="64" y="39" width="4" height="1" fill="#d2b795"/><rect x="69" y="39" width="7" height="1" fill="#d2b795"/><rect x="90" y="39" width="9" height="1" fill="#d2b795"/><rect x="111" y="39" width="24" height="1" fill="#d2b795"/><rect x="143" y="39" width="12" height="1" fill="#d2b795"/><rect x="180" y="39" width="6" height="1" fill="#d2b795"/><rect x="24" y="40" width="15" height="1" fill="#d2b795"/><rect x="40" y="40" width="5" height="1" fill="#d2b795"/><rect x="48" y="40" width="26" height="1" fill="#d2b795"/><rect x="88" y="40" width="9" height="1" fill="#d2b795"/><rect x="112" y="40" width="14" height="1" fill="#d2b795"/><rect x="127" y="40" width="10" height="1" fill="#d2b795"/><rect x="145" y="40" width="11" height="1" fill="#d2b795"/><rect x="163" y="40" width="23" height="1" fill="#d2b795"/><rect x="23" y="41" width="23" height="1" fill="#d2b795"/><rect x="49" y="41" width="3" height="1" fill="#d2b795"/><rect x="53" y="41" width="14" height="1" fill="#d2b795"/><rect x="68" y="41" width="5" height="1" fill="#d2b795"/><rect x="87" y="41" width="8" height="1" fill="#d2b795"/><rect x="112" y="41" width="7" height="1" fill="#d2b795"/><rect x="120" y="41" width="17" height="1" fill="#d2b795"/><rect x="146" y="41" width="40" height="1" fill="#d2b795"/><rect x="20" y="42" width="18" height="1" fill="#d2b795"/><rect x="39" y="42" width="7" height="1" fill="#d2b795"/><rect x="50" y="42" width="1" height="1" fill="#d2b795"/><rect x="52" y="42" width="20" height="1" fill="#d2b795"/><rect x="85" y="42" width="9" height="1" fill="#d2b795"/><rect x="111" y="42" width="15" height="1" fill="#d2b795"/><rect x="127" y="42" width="11" height="1" fill="#d2b795"/><rect x="148" y="42" width="38" height="1" fill="#d2b795"/><rect x="19" y="43" width="28" height="1" fill="#d2b795"/><rect x="52" y="43" width="20" height="1" fill="#d2b795"/><rect x="84" y="43" width="9" height="1" fill="#d2b795"/><rect x="110" y="43" width="18" height="1" fill="#d2b795"/><rect x="129" y="43" width="11" height="1" fill="#d2b795"/><rect x="149" y="43" width="38" height="1" fill="#d2b795"/><rect x="21" y="44" width="28" height="1" fill="#d2b795"/><rect x="52" y="44" width="19" height="1" fill="#d2b795"/><rect x="82" y="44" width="9" height="1" fill="#d2b795"/><rect x="110" y="44" width="17" height="1" fill="#d2b795"/><rect x="130" y="44" width="11" height="1" fill="#d2b795"/><rect x="151" y="44" width="42" height="1" fill="#d2b795"/><rect x="30" y="45" width="18" height="1" fill="#d2b795"/><rect x="51" y="45" width="6" height="1" fill="#d2b795"/><rect x="58" y="45" width="12" height="1" fill="#d2b795"/><rect x="79" y="45" width="10" height="1" fill="#d2b795"/><rect x="110" y="45" width="17" height="1" fill="#d2b795"/><rect x="132" y="45" width="11" height="1" fill="#d2b795"/><rect x="153" y="45" width="43" height="1" fill="#d2b795"/><rect x="30" y="46" width="18" height="1" fill="#d2b795"/><rect x="49" y="46" width="14" height="1" fill="#d2b795"/><rect x="64" y="46" width="5" height="1" fill="#d2b795"/><rect x="78" y="46" width="10" height="1" fill="#d2b795"/><rect x="110" y="46" width="16" height="1" fill="#d2b795"/><rect x="132" y="46" width="12" height="1" fill="#d2b795"/><rect x="155" y="46" width="40" height="1" fill="#d2b795"/><rect x="31" y="47" width="12" height="1" fill="#d2b795"/><rect x="44" y="47" width="17" height="1" fill="#d2b795"/><rect x="62" y="47" width="6" height="1" fill="#d2b795"/><rect x="74" y="47" width="12" height="1" fill="#d2b795"/><rect x="112" y="47" width="14" height="1" fill="#d2b795"/><rect x="133" y="47" width="14" height="1" fill="#d2b795"/><rect x="165" y="47" width="11" height="1" fill="#d2b795"/><rect x="178" y="47" width="15" height="1" fill="#d2b795"/><rect x="31" y="48" width="12" height="1" fill="#d2b795"/><rect x="44" y="48" width="23" height="1" fill="#d2b795"/><rect x="72" y="48" width="13" height="1" fill="#d2b795"/><rect x="113" y="48" width="13" height="1" fill="#d2b795"/><rect x="134" y="48" width="14" height="1" fill="#d2b795"/><rect x="164" y="48" width="12" height="1" fill="#d2b795"/><rect x="179" y="48" width="13" height="1" fill="#d2b795"/><rect x="33" y="49" width="7" height="1" fill="#d2b795"/><rect x="41" y="49" width="10" height="1" fill="#d2b795"/><rect x="52" y="49" width="31" height="1" fill="#d2b795"/><rect x="114" y="49" width="12" height="1" fill="#d2b795"/><rect x="136" y="49" width="41" height="1" fill="#d2b795"/><rect x="181" y="49" width="15" height="1" fill="#d2b795"/><rect x="35" y="50" width="13" height="1" fill="#d2b795"/><rect x="49" y="50" width="32" height="1" fill="#d2b795"/><rect x="114" y="50" width="13" height="1" fill="#d2b795"/><rect x="137" y="50" width="41" height="1" fill="#d2b795"/><rect x="182" y="50" width="16" height="1" fill="#d2b795"/><rect x="33" y="51" width="46" height="1" fill="#d2b795"/><rect x="113" y="51" width="14" height="1" fill="#d2b795"/><rect x="138" y="51" width="40" height="1" fill="#d2b795"/><rect x="183" y="51" width="15" height="1" fill="#d2b795"/><rect x="5" y="52" width="2" height="1" fill="#d2b795"/><rect x="29" y="52" width="48" height="1" fill="#d2b795"/><rect x="110" y="52" width="19" height="1" fill="#d2b795"/><rect x="140" y="52" width="29" height="1" fill="#d2b795"/><rect x="173" y="52" width="6" height="1" fill="#d2b795"/><rect x="184" y="52" width="12" height="1" fill="#d2b795"/><rect x="5" y="53" width="3" height="1" fill="#d2b795"/><rect x="28" y="53" width="18" height="1" fill="#d2b795"/><rect x="47" y="53" width="28" height="1" fill="#d2b795"/><rect x="109" y="53" width="21" height="1" fill="#d2b795"/><rect x="142" y="53" width="24" height="1" fill="#d2b795"/><rect x="174" y="53" width="6" height="1" fill="#d2b795"/><rect x="185" y="53" width="10" height="1" fill="#d2b795"/><rect x="5" y="54" width="4" height="1" fill="#d2b795"/><rect x="24" y="54" width="10" height="1" fill="#d2b795"/><rect x="42" y="54" width="25" height="1" fill="#d2b795"/><rect x="105" y="54" width="27" height="1" fill="#d2b795"/><rect x="149" y="54" width="11" height="1" fill="#d2b795"/><rect x="175" y="54" width="5" height="1" fill="#d2b795"/><rect x="185" y="54" width="14" height="1" fill="#d2b795"/><rect x="5" y="55" width="5" height="1" fill="#d2b795"/><rect x="22" y="55" width="9" height="1" fill="#d2b795"/><rect x="40" y="55" width="19" height="1" fill="#d2b795"/><rect x="85" y="55" width="2" height="1" fill="#d2b795"/><rect x="103" y="55" width="10" height="1" fill="#d2b795"/><rect x="117" y="55" width="15" height="1" fill="#d2b795"/><rect x="176" y="55" width="5" height="1" fill="#d2b795"/><rect x="186" y="55" width="14" height="1" fill="#d2b795"/><rect x="5" y="56" width="5" height="1" fill="#d2b795"/><rect x="21" y="56" width="8" height="1" fill="#d2b795"/><rect x="39" y="56" width="19" height="1" fill="#d2b795"/><rect x="84" y="56" width="5" height="1" fill="#d2b795"/><rect x="102" y="56" width="8" height="1" fill="#d2b795"/><rect x="117" y="56" width="15" height="1" fill="#d2b795"/><rect x="176" y="56" width="6" height="1" fill="#d2b795"/><rect x="186" y="56" width="14" height="1" fill="#d2b795"/><rect x="2" y="57" width="10" height="1" fill="#d2b795"/><rect x="18" y="57" width="8" height="1" fill="#d2b795"/><rect x="37" y="57" width="20" height="1" fill="#d2b795"/><rect x="85" y="57" width="5" height="1" fill="#d2b795"/><rect x="99" y="57" width="8" height="1" fill="#d2b795"/><rect x="115" y="57" width="16" height="1" fill="#d2b795"/><rect x="178" y="57" width="5" height="1" fill="#d2b795"/><rect x="187" y="57" width="11" height="1" fill="#d2b795"/><rect x="0" y="58" width="25" height="1" fill="#d2b795"/><rect x="36" y="58" width="21" height="1" fill="#d2b795"/><rect x="85" y="58" width="7" height="1" fill="#d2b795"/><rect x="98" y="58" width="7" height="1" fill="#d2b795"/><rect x="114" y="58" width="16" height="1" fill="#d2b795"/><rect x="178" y="58" width="6" height="1" fill="#d2b795"/><rect x="188" y="58" width="9" height="1" fill="#d2b795"/><rect x="0" y="59" width="23" height="1" fill="#d2b795"/><rect x="33" y="59" width="23" height="1" fill="#d2b795"/><rect x="85" y="59" width="19" height="1" fill="#d2b795"/><rect x="112" y="59" width="13" height="1" fill="#d2b795"/><rect x="180" y="59" width="6" height="1" fill="#d2b795"/><rect x="188" y="59" width="11" height="1" fill="#d2b795"/><rect x="0" y="60" width="21" height="1" fill="#d2b795"/><rect x="29" y="60" width="20" height="1" fill="#d2b795"/><rect x="83" y="60" width="18" height="1" fill="#d2b795"/><rect x="109" y="60" width="16" height="1" fill="#d2b795"/><rect x="181" y="60" width="6" height="1" fill="#d2b795"/><rect x="189" y="60" width="11" height="1" fill="#d2b795"/><rect x="0" y="61" width="19" height="1" fill="#d2b795"/><rect x="27" y="61" width="22" height="1" fill="#d2b795"/><rect x="84" y="61" width="16" height="1" fill="#d2b795"/><rect x="107" y="61" width="18" height="1" fill="#d2b795"/><rect x="182" y="61" width="6" height="1" fill="#d2b795"/><rect x="189" y="61" width="11" height="1" fill="#d2b795"/><rect x="0" y="62" width="49" height="1" fill="#d2b795"/><rect x="85" y="62" width="14" height="1" fill="#d2b795"/><rect x="102" y="62" width="17" height="1" fill="#d2b795"/><rect x="120" y="62" width="5" height="1" fill="#d2b795"/><rect x="184" y="62" width="16" height="1" fill="#d2b795"/><rect x="0" y="63" width="49" height="1" fill="#d2b795"/><rect x="86" y="63" width="33" height="1" fill="#d2b795"/><rect x="121" y="63" width="3" height="1" fill="#d2b795"/><rect x="185" y="63" width="13" height="1" fill="#d2b795"/><rect x="199" y="63" width="1" height="1" fill="#d2b795"/><rect x="0" y="64" width="42" height="1" fill="#d2b795"/><rect x="43" y="64" width="5" height="1" fill="#d2b795"/><rect x="85" y="64" width="27" height="1" fill="#d2b795"/><rect x="113" y="64" width="5" height="1" fill="#d2b795"/><rect x="121" y="64" width="2" height="1" fill="#d2b795"/><rect x="185" y="64" width="13" height="1" fill="#d2b795"/><rect x="0" y="65" width="41" height="1" fill="#d2b795"/><rect x="43" y="65" width="4" height="1" fill="#d2b795"/><rect x="85" y="65" width="27" height="1" fill="#d2b795"/><rect x="114" y="65" width="4" height="1" fill="#d2b795"/><rect x="121" y="65" width="1" height="1" fill="#d2b795"/><rect x="183" y="65" width="15" height="1" fill="#d2b795"/><rect x="0" y="66" width="41" height="1" fill="#d2b795"/><rect x="43" y="66" width="4" height="1" fill="#d2b795"/><rect x="85" y="66" width="27" height="1" fill="#d2b795"/><rect x="114" y="66" width="3" height="1" fill="#d2b795"/><rect x="183" y="66" width="15" height="1" fill="#d2b795"/><rect x="3" y="67" width="23" height="1" fill="#d2b795"/><rect x="27" y="67" width="6" height="1" fill="#d2b795"/><rect x="34" y="67" width="5" height="1" fill="#d2b795"/><rect x="43" y="67" width="2" height="1" fill="#d2b795"/><rect x="87" y="67" width="18" height="1" fill="#d2b795"/><rect x="107" y="67" width="4" height="1" fill="#d2b795"/><rect x="114" y="67" width="1" height="1" fill="#d2b795"/><rect x="179" y="67" width="19" height="1" fill="#d2b795"/><rect x="3" y="68" width="23" height="1" fill="#d2b795"/><rect x="27" y="68" width="6" height="1" fill="#d2b795"/><rect x="34" y="68" width="5" height="1" fill="#d2b795"/><rect x="43" y="68" width="1" height="1" fill="#d2b795"/><rect x="87" y="68" width="17" height="1" fill="#d2b795"/><rect x="107" y="68" width="3" height="1" fill="#d2b795"/><rect x="114" y="68" width="1" height="1" fill="#d2b795"/><rect x="177" y="68" width="21" height="1" fill="#d2b795"/><rect x="3" y="69" width="11" height="1" fill="#d2b795"/><rect x="19" y="69" width="6" height="1" fill="#d2b795"/><rect x="27" y="69" width="5" height="1" fill="#d2b795"/><rect x="34" y="69" width="3" height="1" fill="#d2b795"/><rect x="87" y="69" width="15" height="1" fill="#d2b795"/><rect x="107" y="69" width="2" height="1" fill="#d2b795"/><rect x="176" y="69" width="22" height="1" fill="#d2b795"/><rect x="6" y="70" width="6" height="1" fill="#d2b795"/><rect x="19" y="70" width="5" height="1" fill="#d2b795"/><rect x="27" y="70" width="3" height="1" fill="#d2b795"/><rect x="87" y="70" width="14" height="1" fill="#d2b795"/><rect x="178" y="70" width="21" height="1" fill="#d2b795"/></svg>