<svg xmlns="http://www.w3.org/2000/svg" width="1254" height="1254" viewBox="0 0 1254 1254" shape-rendering="crispEdges">
<rect x="617" y="472" width="20" height="1" fill="rgb(0,0,0)"/><rect x="617" y="473" width="20" height="1" fill="rgb(0,0,0)"/><rect x="617" y="474" width="20" height="1" fill="rgb(0,0,0)"/><rect x="617" y="475" width="20" height="1" fill="rgb(0,0,0)"/><rect x="617" y="476" width="20" height="1" fill="rgb(0,0,0)"/><rect x="617" y="477" width="20" height="1" fill="rgb(0,0,0)"/><rect x="617" y="478" width="20" height="1" fill="rgb(0,0,0)"/><rect x="616" y="479" width="22" height="1" fill="rgb(0,0,0)"/><rect x="609" y="480" width="36" height="1" fill="rgb(0,0,0)"/><rect x="609" y="481" width="36" height="1" fill="rgb(0,0,0)"/><rect x="609" y="482" width="10" height="1" fill="rgb(0,0,0)"/><rect x="624" y="482" width="6" height="1" fill="rgb(0,0,0)"/><rect x="635" y="482" width="10" height="1" fill="rgb(0,0,0)"/><rect x="609" y="483" width="10" height="1" fill="rgb(0,0,0)"/><rect x="624" y="483" width="6" height="1" fill="rgb(0,0,0)"/><rect x="635" y="483" width="10" height="1" fill="rgb(0,0,0)"/><rect x="609" y="484" width="10" height="1" fill="rgb(0,0,0)"/><rect x="623" y="484" width="7" height="1" fill="rgb(0,0,0)"/><rect x="635" y="484" width="10" height="1" fill="rgb(0,0,0)"/><rect x="609" y="485" width="10" height="1" fill="rgb(0,0,0)"/><rect x="623" y="485" width="8" height="1" fill="rgb(0,0,0)"/><rect x="635" y="485" width="10" height="1" fill="rgb(0,0,0)"/><rect x="609" y="486" width="10" height="1" fill="rgb(0,0,0)"/><rect x="623" y="486" width="8" height="1" fill="rgb(0,0,0)"/><rect x="635" y="486" width="10" height="1" fill="rgb(0,0,0)"/><rect x="609" y="487" width="10" height="1" fill="rgb(0,0,0)"/><rect x="623" y="487" width="8" height="1" fill="rgb(0,0,0)"/><rect x="635" y="487" width="10" height="1" fill="rgb(0,0,0)"/><rect x="609" y="488" width="10" height="1" fill="rgb(0,0,0)"/><rect x="623" y="488" width="8" height="1" fill="rgb(0,0,0)"/><rect x="635" y="488" width="10" height="1" fill="rgb(0,0,0)"/><rect x="609" y="489" width="10" height="1" fill="rgb(0,0,0)"/><rect x="635" y="489" width="10" height="1" fill="rgb(0,0,0)"/><rect x="609" y="490" width="10" height="1" fill="rgb(0,0,0)"/><rect x="635" y="490" width="10" height="1" fill="rgb(0,0,0)"/><rect x="609" y="491" width="10" height="1" fill="rgb(0,0,0)"/><rect x="635" y="491" width="10" height="1" fill="rgb(0,0,0)"/><rect x="609" y="492" width="10" height="1" fill="rgb(0,0,0)"/><rect x="635" y="492" width="10" height="1" fill="rgb(0,0,0)"/><rect x="609" y="493" width="10" height="1" fill="rgb(0,0,0)"/><rect x="635" y="493" width="10" height="1" fill="rgb(0,0,0)"/><rect x="609" y="494" width="10" height="1" fill="rgb(0,0,0)"/><rect x="635" y="494" width="10" height="1" fill="rgb(0,0,0)"/><rect x="609" y="495" width="10" height="1" fill="rgb(0,0,0)"/><rect x="635" y="495" width="10" height="1" fill="rgb(0,0,0)"/><rect x="609" y="496" width="10" height="1" fill="rgb(0,0,0)"/><rect x="635" y="496" width="10" height="1" fill="rgb(0,0,0)"/><rect x="609" y="497" width="36" height="1" fill="rgb(0,0,0)"/><rect x="617" y="498" width="20" height="1" fill="rgb(0,0,0)"/><rect x="617" y="499" width="20" height="1" fill="rgb(0,0,0)"/><rect x="617" y="500" width="20" height="1" fill="rgb(0,0,0)"/><rect x="617" y="501" width="20" height="1" fill="rgb(0,0,0)"/><rect x="617" y="502" width="20" height="1" fill="rgb(0,0,0)"/><rect x="617" y="503" width="20" height="1" fill="rgb(0,0,0)"/><rect x="617" y="504" width="20" height="1" fill="rgb(0,0,0)"/><rect x="617" y="505" width="20" height="1" fill="rgb(0,0,0)"/><rect x="617" y="506" width="20" height="1" fill="rgb(0,0,0)"/><rect x="617" y="507" width="20" height="1" fill="rgb(0,0,0)"/><rect x="617" y="508" width="20" height="1" fill="rgb(0,0,0)"/><rect x="617" y="509" width="20" height="1" fill="rgb(0,0,0)"/><rect x="617" y="510" width="20" height="1" fill="rgb(0,0,0)"/><rect x="617" y="511" width="20" height="1" fill="rgb(0,0,0)"/><rect x="617" y="512" width="20" height="1" fill="rgb(0,0,0)"/><rect x="617" y="513" width="20" height="1" fill="rgb(0,0,0)"/><rect x="617" y="514" width="20" height="1" fill="rgb(0,0,0)"/><rect x="617" y="515" width="20" height="1" fill="rgb(0,0,0)"/><rect x="617" y="516" width="20" height="1" fill="rgb(0,0,0)"/><rect x="617" y="517" width="20" height="1" fill="rgb(0,0,0)"/><rect x="617" y="518" width="20" height="1" fill="rgb(0,0,0)"/><rect x="617" y="519" width="20" height="1" fill="rgb(0,0,0)"/><rect x="617" y="520" width="20" height="1" fill="rgb(0,0,0)"/><rect x="617" y="521" width="20" height="1" fill="rgb(0,0,0)"/><rect x="617" y="522" width="20" height="1" fill="rgb(0,0,0)"/><rect x="617" y="523" width="21" height="1" fill="rgb(0,0,0)"/><rect x="617" y="524" width="21" height="1" fill="rgb(0,0,0)"/><rect x="617" y="525" width="21" height="1" fill="rgb(0,0,0)"/><rect x="617" y="526" width="21" height="1" fill="rgb(0,0,0)"/><rect x="617" y="527" width="21" height="1" fill="rgb(0,0,0)"/><rect x="617" y="528" width="21" height="1" fill="rgb(0,0,0)"/><rect x="617" y="529" width="21" height="1" fill="rgb(0,0,0)"/><rect x="617" y="530" width="21" height="1" fill="rgb(0,0,0)"/><rect x="617" y="531" width="21" height="1" fill="rgb(0,0,0)"/><rect x="617" y="532" width="21" height="1" fill="rgb(0,0,0)"/><rect x="617" y="533" width="21" height="1" fill="rgb(0,0,0)"/><rect x="617" y="534" width="21" height="1" fill="rgb(0,0,0)"/><rect x="617" y="535" width="21" height="1" fill="rgb(0,0,0)"/><rect x="617" y="536" width="21" height="1" fill="rgb(0,0,0)"/><rect x="615" y="537" width="24" height="1" fill="rgb(0,0,0)"/><rect x="614" y="538" width="25" height="1" fill="rgb(0,0,0)"/><rect x="614" y="539" width="25" height="1" fill="rgb(0,0,0)"/><rect x="614" y="540" width="25" height="1" fill="rgb(0,0,0)"/><rect x="614" y="541" width="25" height="1" fill="rgb(0,0,0)"/><rect x="614" y="542" width="25" height="1" fill="rgb(0,0,0)"/><rect x="614" y="543" width="25" height="1" fill="rgb(0,0,0)"/><rect x="614" y="544" width="25" height="1" fill="rgb(0,0,0)"/><rect x="615" y="545" width="24" height="1" fill="rgb(0,0,0)"/><rect x="615" y="546" width="24" height="1" fill="rgb(0,0,0)"/><rect x="615" y="547" width="24" height="1" fill="rgb(0,0,0)"/><rect x="615" y="548" width="24" height="1" fill="rgb(0,0,0)"/><rect x="615" y="549" width="24" height="1" fill="rgb(0,0,0)"/><rect x="615" y="550" width="24" height="1" fill="rgb(0,0,0)"/><rect x="615" y="551" width="24" height="1" fill="rgb(0,0,0)"/><rect x="615" y="552" width="24" height="1" fill="rgb(0,0,0)"/><rect x="615" y="553" width="24" height="1" fill="rgb(0,0,0)"/><rect x="615" y="554" width="24" height="1" fill="rgb(0,0,0)"/><rect x="614" y="555" width="25" height="1" fill="rgb(0,0,0)"/><rect x="667" y="555" width="13" height="1" fill="rgb(0,0,0)"/><rect x="614" y="556" width="26" height="1" fill="rgb(0,0,0)"/><rect x="667" y="556" width="14" height="1" fill="rgb(0,0,0)"/><rect x="614" y="557" width="26" height="1" fill="rgb(0,0,0)"/><rect x="667" y="557" width="14" height="1" fill="rgb(0,0,0)"/><rect x="614" y="558" width="26" height="1" fill="rgb(0,0,0)"/><rect x="667" y="558" width="14" height="1" fill="rgb(0,0,0)"/><rect x="614" y="559" width="26" height="1" fill="rgb(0,0,0)"/><rect x="667" y="559" width="14" height="1" fill="rgb(0,0,0)"/><rect x="614" y="560" width="26" height="1" fill="rgb(0,0,0)"/><rect x="667" y="560" width="14" height="1" fill="rgb(0,0,0)"/><rect x="614" y="561" width="26" height="1" fill="rgb(0,0,0)"/><rect x="667" y="561" width="14" height="1" fill="rgb(0,0,0)"/><rect x="606" y="574" width="11" height="1" fill="rgb(0,0,0)"/><rect x="622" y="574" width="9" height="1" fill="rgb(0,0,0)"/><rect x="636" y="574" width="12" height="1" fill="rgb(0,0,0)"/><rect x="667" y="574" width="14" height="1" fill="rgb(0,0,0)"/><rect x="606" y="575" width="11" height="1" fill="rgb(0,0,0)"/><rect x="622" y="575" width="9" height="1" fill="rgb(0,0,0)"/><rect x="636" y="575" width="12" height="1" fill="rgb(0,0,0)"/><rect x="667" y="575" width="14" height="1" fill="rgb(0,0,0)"/><rect x="606" y="576" width="11" height="1" fill="rgb(0,0,0)"/><rect x="622" y="576" width="9" height="1" fill="rgb(0,0,0)"/><rect x="636" y="576" width="12" height="1" fill="rgb(0,0,0)"/><rect x="667" y="576" width="14" height="1" fill="rgb(0,0,0)"/><rect x="606" y="577" width="11" height="1" fill="rgb(0,0,0)"/><rect x="623" y="577" width="8" height="1" fill="rgb(0,0,0)"/><rect x="636" y="577" width="12" height="1" fill="rgb(0,0,0)"/><rect x="667" y="577" width="14" height="1" fill="rgb(0,0,0)"/><rect x="606" y="578" width="11" height="1" fill="rgb(0,0,0)"/><rect x="636" y="578" width="12" height="1" fill="rgb(0,0,0)"/><rect x="667" y="578" width="14" height="1" fill="rgb(0,0,0)"/><rect x="606" y="579" width="12" height="1" fill="rgb(0,0,0)"/><rect x="636" y="579" width="12" height="1" fill="rgb(0,0,0)"/><rect x="667" y="579" width="14" height="1" fill="rgb(0,0,0)"/><rect x="606" y="580" width="17" height="1" fill="rgb(0,0,0)"/><rect x="631" y="580" width="17" height="1" fill="rgb(0,0,0)"/><rect x="667" y="580" width="14" height="1" fill="rgb(0,0,0)"/><rect x="606" y="581" width="17" height="1" fill="rgb(0,0,0)"/><rect x="631" y="581" width="17" height="1" fill="rgb(0,0,0)"/><rect x="606" y="582" width="17" height="1" fill="rgb(0,0,0)"/><rect x="631" y="582" width="17" height="1" fill="rgb(0,0,0)"/><rect x="606" y="583" width="17" height="1" fill="rgb(0,0,0)"/><rect x="631" y="583" width="17" height="1" fill="rgb(0,0,0)"/><rect x="606" y="584" width="17" height="1" fill="rgb(0,0,0)"/><rect x="631" y="584" width="17" height="1" fill="rgb(0,0,0)"/><rect x="606" y="585" width="17" height="1" fill="rgb(0,0,0)"/><rect x="631" y="585" width="17" height="1" fill="rgb(0,0,0)"/><rect x="606" y="586" width="17" height="1" fill="rgb(0,0,0)"/><rect x="631" y="586" width="17" height="1" fill="rgb(0,0,0)"/><rect x="606" y="587" width="17" height="1" fill="rgb(0,0,0)"/><rect x="631" y="587" width="17" height="1" fill="rgb(0,0,0)"/><rect x="606" y="588" width="17" height="1" fill="rgb(0,0,0)"/><rect x="631" y="588" width="17" height="1" fill="rgb(0,0,0)"/><rect x="606" y="589" width="17" height="1" fill="rgb(0,0,0)"/><rect x="631" y="589" width="17" height="1" fill="rgb(0,0,0)"/><rect x="606" y="590" width="17" height="1" fill="rgb(0,0,0)"/><rect x="631" y="590" width="17" height="1" fill="rgb(0,0,0)"/><rect x="606" y="591" width="17" height="1" fill="rgb(0,0,0)"/><rect x="631" y="591" width="17" height="1" fill="rgb(0,0,0)"/><rect x="606" y="592" width="17" height="1" fill="rgb(0,0,0)"/><rect x="631" y="592" width="17" height="1" fill="rgb(0,0,0)"/><rect x="606" y="593" width="17" height="1" fill="rgb(0,0,0)"/><rect x="631" y="593" width="17" height="1" fill="rgb(0,0,0)"/><rect x="606" y="594" width="17" height="1" fill="rgb(0,0,0)"/><rect x="631" y="594" width="17" height="1" fill="rgb(0,0,0)"/><rect x="606" y="595" width="17" height="1" fill="rgb(0,0,0)"/><rect x="631" y="595" width="17" height="1" fill="rgb(0,0,0)"/><rect x="606" y="596" width="17" height="1" fill="rgb(0,0,0)"/><rect x="631" y="596" width="17" height="1" fill="rgb(0,0,0)"/><rect x="606" y="597" width="17" height="1" fill="rgb(0,0,0)"/><rect x="631" y="597" width="17" height="1" fill="rgb(0,0,0)"/><rect x="606" y="598" width="17" height="1" fill="rgb(0,0,0)"/><rect x="631" y="598" width="17" height="1" fill="rgb(0,0,0)"/><rect x="606" y="599" width="17" height="1" fill="rgb(0,0,0)"/><rect x="631" y="599" width="17" height="1" fill="rgb(0,0,0)"/><rect x="606" y="600" width="17" height="1" fill="rgb(0,0,0)"/><rect x="631" y="600" width="17" height="1" fill="rgb(0,0,0)"/><rect x="606" y="601" width="17" height="1" fill="rgb(0,0,0)"/><rect x="631" y="601" width="17" height="1" fill="rgb(0,0,0)"/><rect x="606" y="602" width="17" height="1" fill="rgb(0,0,0)"/><rect x="631" y="602" width="17" height="1" fill="rgb(0,0,0)"/><rect x="606" y="603" width="17" height="1" fill="rgb(0,0,0)"/><rect x="631" y="603" width="17" height="1" fill="rgb(0,0,0)"/><rect x="606" y="604" width="17" height="1" fill="rgb(0,0,0)"/><rect x="631" y="604" width="17" height="1" fill="rgb(0,0,0)"/><rect x="606" y="605" width="17" height="1" fill="rgb(0,0,0)"/><rect x="631" y="605" width="17" height="1" fill="rgb(0,0,0)"/><rect x="606" y="606" width="17" height="1" fill="rgb(0,0,0)"/><rect x="631" y="606" width="17" height="1" fill="rgb(0,0,0)"/><rect x="606" y="607" width="17" height="1" fill="rgb(0,0,0)"/><rect x="631" y="607" width="17" height="1" fill="rgb(0,0,0)"/><rect x="606" y="608" width="17" height="1" fill="rgb(0,0,0)"/><rect x="631" y="608" width="17" height="1" fill="rgb(0,0,0)"/><rect x="606" y="609" width="17" height="1" fill="rgb(0,0,0)"/><rect x="631" y="609" width="17" height="1" fill="rgb(0,0,0)"/><rect x="606" y="610" width="17" height="1" fill="rgb(0,0,0)"/><rect x="631" y="610" width="17" height="1" fill="rgb(0,0,0)"/><rect x="606" y="611" width="17" height="1" fill="rgb(0,0,0)"/><rect x="631" y="611" width="17" height="1" fill="rgb(0,0,0)"/><rect x="606" y="612" width="17" height="1" fill="rgb(0,0,0)"/><rect x="631" y="612" width="17" height="1" fill="rgb(0,0,0)"/><rect x="606" y="613" width="17" height="1" fill="rgb(0,0,0)"/><rect x="631" y="613" width="17" height="1" fill="rgb(0,0,0)"/><rect x="606" y="614" width="17" height="1" fill="rgb(0,0,0)"/><rect x="631" y="614" width="17" height="1" fill="rgb(0,0,0)"/><rect x="606" y="615" width="17" height="1" fill="rgb(0,0,0)"/><rect x="631" y="615" width="17" height="1" fill="rgb(0,0,0)"/><rect x="606" y="616" width="17" height="1" fill="rgb(0,0,0)"/><rect x="631" y="616" width="17" height="1" fill="rgb(0,0,0)"/><rect x="606" y="617" width="17" height="1" fill="rgb(0,0,0)"/><rect x="631" y="617" width="17" height="1" fill="rgb(0,0,0)"/><rect x="606" y="618" width="17" height="1" fill="rgb(0,0,0)"/><rect x="631" y="618" width="17" height="1" fill="rgb(0,0,0)"/><rect x="606" y="619" width="17" height="1" fill="rgb(0,0,0)"/><rect x="631" y="619" width="17" height="1" fill="rgb(0,0,0)"/><rect x="606" y="620" width="17" height="1" fill="rgb(0,0,0)"/><rect x="631" y="620" width="17" height="1" fill="rgb(0,0,0)"/><rect x="606" y="621" width="17" height="1" fill="rgb(0,0,0)"/><rect x="631" y="621" width="17" height="1" fill="rgb(0,0,0)"/><rect x="606" y="622" width="17" height="1" fill="rgb(0,0,0)"/><rect x="631" y="622" width="17" height="1" fill="rgb(0,0,0)"/><rect x="606" y="623" width="17" height="1" fill="rgb(0,0,0)"/><rect x="631" y="623" width="17" height="1" fill="rgb(0,0,0)"/><rect x="606" y="624" width="17" height="1" fill="rgb(0,0,0)"/><rect x="631" y="624" width="17" height="1" fill="rgb(0,0,0)"/><rect x="606" y="625" width="17" height="1" fill="rgb(0,0,0)"/><rect x="631" y="625" width="17" height="1" fill="rgb(0,0,0)"/><rect x="606" y="626" width="17" height="1" fill="rgb(0,0,0)"/><rect x="631" y="626" width="17" height="1" fill="rgb(0,0,0)"/><rect x="606" y="627" width="17" height="1" fill="rgb(0,0,0)"/><rect x="631" y="627" width="17" height="1" fill="rgb(0,0,0)"/><rect x="606" y="628" width="17" height="1" fill="rgb(0,0,0)"/><rect x="631" y="628" width="17" height="1" fill="rgb(0,0,0)"/><rect x="606" y="629" width="17" height="1" fill="rgb(0,0,0)"/><rect x="631" y="629" width="17" height="1" fill="rgb(0,0,0)"/><rect x="606" y="630" width="17" height="1" fill="rgb(0,0,0)"/><rect x="631" y="630" width="17" height="1" fill="rgb(0,0,0)"/><rect x="606" y="631" width="17" height="1" fill="rgb(0,0,0)"/><rect x="631" y="631" width="17" height="1" fill="rgb(0,0,0)"/><rect x="606" y="632" width="17" height="1" fill="rgb(0,0,0)"/><rect x="631" y="632" width="17" height="1" fill="rgb(0,0,0)"/><rect x="606" y="633" width="17" height="1" fill="rgb(0,0,0)"/><rect x="631" y="633" width="17" height="1" fill="rgb(0,0,0)"/><rect x="606" y="634" width="17" height="1" fill="rgb(0,0,0)"/><rect x="631" y="634" width="17" height="1" fill="rgb(0,0,0)"/><rect x="606" y="635" width="17" height="1" fill="rgb(0,0,0)"/><rect x="631" y="635" width="17" height="1" fill="rgb(0,0,0)"/><rect x="606" y="636" width="17" height="1" fill="rgb(0,0,0)"/><rect x="631" y="636" width="17" height="1" fill="rgb(0,0,0)"/><rect x="606" y="637" width="17" height="1" fill="rgb(0,0,0)"/><rect x="631" y="637" width="17" height="1" fill="rgb(0,0,0)"/><rect x="606" y="638" width="17" height="1" fill="rgb(0,0,0)"/><rect x="631" y="638" width="17" height="1" fill="rgb(0,0,0)"/><rect x="606" y="639" width="17" height="1" fill="rgb(0,0,0)"/><rect x="631" y="639" width="17" height="1" fill="rgb(0,0,0)"/><rect x="606" y="640" width="17" height="1" fill="rgb(0,0,0)"/><rect x="631" y="640" width="17" height="1" fill="rgb(0,0,0)"/><rect x="606" y="641" width="17" height="1" fill="rgb(0,0,0)"/><rect x="631" y="641" width="17" height="1" fill="rgb(0,0,0)"/><rect x="606" y="642" width="17" height="1" fill="rgb(0,0,0)"/><rect x="631" y="642" width="17" height="1" fill="rgb(0,0,0)"/><rect x="606" y="643" width="17" height="1" fill="rgb(0,0,0)"/><rect x="631" y="643" width="17" height="1" fill="rgb(0,0,0)"/><rect x="606" y="644" width="17" height="1" fill="rgb(0,0,0)"/><rect x="631" y="644" width="17" height="1" fill="rgb(0,0,0)"/><rect x="606" y="645" width="17" height="1" fill="rgb(0,0,0)"/><rect x="631" y="645" width="17" height="1" fill="rgb(0,0,0)"/><rect x="606" y="646" width="17" height="1" fill="rgb(0,0,0)"/><rect x="631" y="646" width="17" height="1" fill="rgb(0,0,0)"/><rect x="606" y="647" width="17" height="1" fill="rgb(0,0,0)"/><rect x="631" y="647" width="17" height="1" fill="rgb(0,0,0)"/><rect x="606" y="648" width="17" height="1" fill="rgb(0,0,0)"/><rect x="631" y="648" width="17" height="1" fill="rgb(0,0,0)"/><rect x="606" y="649" width="17" height="1" fill="rgb(0,0,0)"/><rect x="631" y="649" width="17" height="1" fill="rgb(0,0,0)"/><rect x="606" y="650" width="17" height="1" fill="rgb(0,0,0)"/><rect x="631" y="650" width="17" height="1" fill="rgb(0,0,0)"/><rect x="606" y="651" width="17" height="1" fill="rgb(0,0,0)"/><rect x="631" y="651" width="17" height="1" fill="rgb(0,0,0)"/><rect x="606" y="652" width="17" height="1" fill="rgb(0,0,0)"/><rect x="631" y="652" width="17" height="1" fill="rgb(0,0,0)"/><rect x="606" y="653" width="17" height="1" fill="rgb(0,0,0)"/><rect x="631" y="653" width="17" height="1" fill="rgb(0,0,0)"/><rect x="606" y="654" width="17" height="1" fill="rgb(0,0,0)"/><rect x="631" y="654" width="17" height="1" fill="rgb(0,0,0)"/><rect x="606" y="655" width="17" height="1" fill="rgb(0,0,0)"/><rect x="631" y="655" width="17" height="1" fill="rgb(0,0,0)"/><rect x="606" y="656" width="17" height="1" fill="rgb(0,0,0)"/><rect x="631" y="656" width="17" height="1" fill="rgb(0,0,0)"/><rect x="606" y="657" width="17" height="1" fill="rgb(0,0,0)"/><rect x="631" y="657" width="17" height="1" fill="rgb(0,0,0)"/><rect x="606" y="658" width="17" height="1" fill="rgb(0,0,0)"/><rect x="631" y="658" width="17" height="1" fill="rgb(0,0,0)"/><rect x="606" y="659" width="17" height="1" fill="rgb(0,0,0)"/><rect x="631" y="659" width="17" height="1" fill="rgb(0,0,0)"/><rect x="606" y="660" width="17" height="1" fill="rgb(0,0,0)"/><rect x="631" y="660" width="17" height="1" fill="rgb(0,0,0)"/><rect x="606" y="661" width="17" height="1" fill="rgb(0,0,0)"/><rect x="631" y="661" width="17" height="1" fill="rgb(0,0,0)"/><rect x="606" y="662" width="17" height="1" fill="rgb(0,0,0)"/><rect x="631" y="662" width="17" height="1" fill="rgb(0,0,0)"/><rect x="606" y="663" width="17" height="1" fill="rgb(0,0,0)"/><rect x="631" y="663" width="17" height="1" fill="rgb(0,0,0)"/><rect x="613" y="664" width="10" height="1" fill="rgb(0,0,0)"/><rect x="631" y="664" width="16" height="1" fill="rgb(0,0,0)"/><rect x="614" y="665" width="9" height="1" fill="rgb(0,0,0)"/><rect x="631" y="665" width="9" height="1" fill="rgb(0,0,0)"/><rect x="614" y="666" width="9" height="1" fill="rgb(0,0,0)"/><rect x="631" y="666" width="9" height="1" fill="rgb(0,0,0)"/><rect x="614" y="667" width="9" height="1" fill="rgb(0,0,0)"/><rect x="631" y="667" width="9" height="1" fill="rgb(0,0,0)"/><rect x="614" y="668" width="9" height="1" fill="rgb(0,0,0)"/><rect x="631" y="668" width="9" height="1" fill="rgb(0,0,0)"/><rect x="614" y="669" width="9" height="1" fill="rgb(0,0,0)"/><rect x="631" y="669" width="9" height="1" fill="rgb(0,0,0)"/><rect x="614" y="670" width="9" height="1" fill="rgb(0,0,0)"/><rect x="631" y="670" width="9" height="1" fill="rgb(0,0,0)"/><rect x="614" y="671" width="9" height="1" fill="rgb(0,0,0)"/><rect x="631" y="671" width="9" height="1" fill="rgb(0,0,0)"/><rect x="614" y="672" width="9" height="1" fill="rgb(0,0,0)"/><rect x="631" y="672" width="9" height="1" fill="rgb(0,0,0)"/><rect x="614" y="673" width="9" height="1" fill="rgb(0,0,0)"/><rect x="631" y="673" width="9" height="1" fill="rgb(0,0,0)"/><rect x="614" y="674" width="9" height="1" fill="rgb(0,0,0)"/><rect x="631" y="674" width="9" height="1" fill="rgb(0,0,0)"/><rect x="614" y="675" width="9" height="1" fill="rgb(0,0,0)"/><rect x="631" y="675" width="9" height="1" fill="rgb(0,0,0)"/><rect x="614" y="676" width="9" height="1" fill="rgb(0,0,0)"/><rect x="631" y="676" width="9" height="1" fill="rgb(0,0,0)"/><rect x="614" y="677" width="9" height="1" fill="rgb(0,0,0)"/><rect x="631" y="677" width="9" height="1" fill="rgb(0,0,0)"/><rect x="614" y="678" width="9" height="1" fill="rgb(0,0,0)"/><rect x="631" y="678" width="9" height="1" fill="rgb(0,0,0)"/><rect x="614" y="679" width="9" height="1" fill="rgb(0,0,0)"/><rect x="631" y="679" width="9" height="1" fill="rgb(0,0,0)"/><rect x="614" y="680" width="9" height="1" fill="rgb(0,0,0)"/><rect x="631" y="680" width="9" height="1" fill="rgb(0,0,0)"/><rect x="614" y="681" width="9" height="1" fill="rgb(0,0,0)"/><rect x="631" y="681" width="9" height="1" fill="rgb(0,0,0)"/><rect x="614" y="682" width="9" height="1" fill="rgb(0,0,0)"/><rect x="631" y="682" width="9" height="1" fill="rgb(0,0,0)"/><rect x="614" y="683" width="9" height="1" fill="rgb(0,0,0)"/><rect x="631" y="683" width="9" height="1" fill="rgb(0,0,0)"/><rect x="614" y="684" width="9" height="1" fill="rgb(0,0,0)"/><rect x="631" y="684" width="9" height="1" fill="rgb(0,0,0)"/><rect x="614" y="685" width="9" height="1" fill="rgb(0,0,0)"/><rect x="631" y="685" width="9" height="1" fill="rgb(0,0,0)"/><rect x="614" y="686" width="9" height="1" fill="rgb(0,0,0)"/><rect x="631" y="686" width="9" height="1" fill="rgb(0,0,0)"/><rect x="614" y="687" width="9" height="1" fill="rgb(0,0,0)"/><rect x="631" y="687" width="9" height="1" fill="rgb(0,0,0)"/><rect x="614" y="688" width="9" height="1" fill="rgb(0,0,0)"/><rect x="631" y="688" width="9" height="1" fill="rgb(0,0,0)"/><rect x="614" y="689" width="9" height="1" fill="rgb(0,0,0)"/><rect x="631" y="689" width="9" height="1" fill="rgb(0,0,0)"/><rect x="614" y="690" width="9" height="1" fill="rgb(0,0,0)"/><rect x="631" y="690" width="9" height="1" fill="rgb(0,0,0)"/><rect x="614" y="691" width="9" height="1" fill="rgb(0,0,0)"/><rect x="631" y="691" width="9" height="1" fill="rgb(0,0,0)"/><rect x="614" y="692" width="9" height="1" fill="rgb(0,0,0)"/><rect x="631" y="692" width="9" height="1" fill="rgb(0,0,0)"/><rect x="614" y="693" width="9" height="1" fill="rgb(0,0,0)"/><rect x="631" y="693" width="9" height="1" fill="rgb(0,0,0)"/><rect x="614" y="694" width="9" height="1" fill="rgb(0,0,0)"/><rect x="631" y="694" width="9" height="1" fill="rgb(0,0,0)"/><rect x="614" y="695" width="9" height="1" fill="rgb(0,0,0)"/><rect x="631" y="695" width="9" height="1" fill="rgb(0,0,0)"/><rect x="614" y="696" width="9" height="1" fill="rgb(0,0,0)"/><rect x="631" y="696" width="9" height="1" fill="rgb(0,0,0)"/><rect x="614" y="697" width="9" height="1" fill="rgb(0,0,0)"/><rect x="631" y="697" width="9" height="1" fill="rgb(0,0,0)"/><rect x="614" y="698" width="9" height="1" fill="rgb(0,0,0)"/><rect x="631" y="698" width="9" height="1" fill="rgb(0,0,0)"/><rect x="614" y="699" width="9" height="1" fill="rgb(0,0,0)"/><rect x="631" y="699" width="9" height="1" fill="rgb(0,0,0)"/><rect x="614" y="700" width="9" height="1" fill="rgb(0,0,0)"/><rect x="631" y="700" width="9" height="1" fill="rgb(0,0,0)"/><rect x="614" y="701" width="9" height="1" fill="rgb(0,0,0)"/><rect x="631" y="701" width="9" height="1" fill="rgb(0,0,0)"/><rect x="614" y="702" width="9" height="1" fill="rgb(0,0,0)"/><rect x="631" y="702" width="9" height="1" fill="rgb(0,0,0)"/><rect x="614" y="703" width="9" height="1" fill="rgb(0,0,0)"/><rect x="631" y="703" width="9" height="1" fill="rgb(0,0,0)"/><rect x="614" y="704" width="9" height="1" fill="rgb(0,0,0)"/><rect x="631" y="704" width="9" height="1" fill="rgb(0,0,0)"/><rect x="614" y="705" width="9" height="1" fill="rgb(0,0,0)"/><rect x="631" y="705" width="9" height="1" fill="rgb(0,0,0)"/><rect x="614" y="706" width="9" height="1" fill="rgb(0,0,0)"/><rect x="631" y="706" width="9" height="1" fill="rgb(0,0,0)"/><rect x="614" y="707" width="9" height="1" fill="rgb(0,0,0)"/><rect x="631" y="707" width="9" height="1" fill="rgb(0,0,0)"/><rect x="614" y="708" width="9" height="1" fill="rgb(0,0,0)"/><rect x="631" y="708" width="9" height="1" fill="rgb(0,0,0)"/><rect x="614" y="709" width="9" height="1" fill="rgb(0,0,0)"/><rect x="631" y="709" width="9" height="1" fill="rgb(0,0,0)"/><rect x="614" y="710" width="9" height="1" fill="rgb(0,0,0)"/><rect x="631" y="710" width="9" height="1" fill="rgb(0,0,0)"/><rect x="614" y="711" width="9" height="1" fill="rgb(0,0,0)"/><rect x="631" y="711" width="9" height="1" fill="rgb(0,0,0)"/><rect x="614" y="712" width="9" height="1" fill="rgb(0,0,0)"/><rect x="631" y="712" width="9" height="1" fill="rgb(0,0,0)"/><rect x="614" y="713" width="9" height="1" fill="rgb(0,0,0)"/><rect x="631" y="713" width="9" height="1" fill="rgb(0,0,0)"/><rect x="614" y="714" width="9" height="1" fill="rgb(0,0,0)"/><rect x="631" y="714" width="9" height="1" fill="rgb(0,0,0)"/><rect x="614" y="715" width="9" height="1" fill="rgb(0,0,0)"/><rect x="631" y="715" width="9" height="1" fill="rgb(0,0,0)"/><rect x="614" y="716" width="9" height="1" fill="rgb(0,0,0)"/><rect x="631" y="716" width="9" height="1" fill="rgb(0,0,0)"/><rect x="614" y="717" width="9" height="1" fill="rgb(0,0,0)"/><rect x="631" y="717" width="9" height="1" fill="rgb(0,0,0)"/><rect x="614" y="718" width="9" height="1" fill="rgb(0,0,0)"/><rect x="631" y="718" width="9" height="1" fill="rgb(0,0,0)"/><rect x="614" y="719" width="9" height="1" fill="rgb(0,0,0)"/><rect x="631" y="719" width="9" height="1" fill="rgb(0,0,0)"/><rect x="614" y="720" width="9" height="1" fill="rgb(0,0,0)"/><rect x="631" y="720" width="9" height="1" fill="rgb(0,0,0)"/><rect x="614" y="721" width="9" height="1" fill="rgb(0,0,0)"/><rect x="631" y="721" width="9" height="1" fill="rgb(0,0,0)"/><rect x="614" y="722" width="9" height="1" fill="rgb(0,0,0)"/><rect x="631" y="722" width="9" height="1" fill="rgb(0,0,0)"/><rect x="614" y="723" width="9" height="1" fill="rgb(0,0,0)"/><rect x="631" y="723" width="9" height="1" fill="rgb(0,0,0)"/><rect x="614" y="724" width="9" height="1" fill="rgb(0,0,0)"/><rect x="631" y="724" width="9" height="1" fill="rgb(0,0,0)"/><rect x="614" y="725" width="9" height="1" fill="rgb(0,0,0)"/><rect x="631" y="725" width="9" height="1" fill="rgb(0,0,0)"/><rect x="614" y="726" width="9" height="1" fill="rgb(0,0,0)"/><rect x="631" y="726" width="9" height="1" fill="rgb(0,0,0)"/><rect x="614" y="727" width="9" height="1" fill="rgb(0,0,0)"/><rect x="631" y="727" width="9" height="1" fill="rgb(0,0,0)"/><rect x="614" y="728" width="9" height="1" fill="rgb(0,0,0)"/><rect x="631" y="728" width="9" height="1" fill="rgb(0,0,0)"/><rect x="614" y="729" width="9" height="1" fill="rgb(0,0,0)"/><rect x="631" y="729" width="9" height="1" fill="rgb(0,0,0)"/><rect x="614" y="730" width="9" height="1" fill="rgb(0,0,0)"/><rect x="631" y="730" width="9" height="1" fill="rgb(0,0,0)"/><rect x="614" y="731" width="9" height="1" fill="rgb(0,0,0)"/><rect x="631" y="731" width="9" height="1" fill="rgb(0,0,0)"/><rect x="614" y="732" width="9" height="1" fill="rgb(0,0,0)"/><rect x="631" y="732" width="9" height="1" fill="rgb(0,0,0)"/><rect x="614" y="733" width="9" height="1" fill="rgb(0,0,0)"/><rect x="631" y="733" width="9" height="1" fill="rgb(0,0,0)"/><rect x="614" y="734" width="9" height="1" fill="rgb(0,0,0)"/><rect x="631" y="734" width="9" height="1" fill="rgb(0,0,0)"/><rect x="614" y="735" width="9" height="1" fill="rgb(0,0,0)"/><rect x="631" y="735" width="9" height="1" fill="rgb(0,0,0)"/><rect x="614" y="736" width="9" height="1" fill="rgb(0,0,0)"/><rect x="631" y="736" width="9" height="1" fill="rgb(0,0,0)"/><rect x="614" y="737" width="9" height="1" fill="rgb(0,0,0)"/><rect x="631" y="737" width="9" height="1" fill="rgb(0,0,0)"/><rect x="614" y="738" width="9" height="1" fill="rgb(0,0,0)"/><rect x="631" y="738" width="9" height="1" fill="rgb(0,0,0)"/><rect x="614" y="739" width="9" height="1" fill="rgb(0,0,0)"/><rect x="631" y="739" width="9" height="1" fill="rgb(0,0,0)"/><rect x="614" y="740" width="9" height="1" fill="rgb(0,0,0)"/><rect x="631" y="740" width="9" height="1" fill="rgb(0,0,0)"/><rect x="614" y="741" width="9" height="1" fill="rgb(0,0,0)"/><rect x="631" y="741" width="9" height="1" fill="rgb(0,0,0)"/><rect x="614" y="742" width="9" height="1" fill="rgb(0,0,0)"/><rect x="631" y="742" width="9" height="1" fill="rgb(0,0,0)"/><rect x="614" y="743" width="9" height="1" fill="rgb(0,0,0)"/><rect x="631" y="743" width="9" height="1" fill="rgb(0,0,0)"/><rect x="614" y="744" width="9" height="1" fill="rgb(0,0,0)"/><rect x="631" y="744" width="9" height="1" fill="rgb(0,0,0)"/><rect x="614" y="745" width="9" height="1" fill="rgb(0,0,0)"/><rect x="631" y="745" width="9" height="1" fill="rgb(0,0,0)"/><rect x="614" y="746" width="9" height="1" fill="rgb(0,0,0)"/><rect x="631" y="746" width="9" height="1" fill="rgb(0,0,0)"/><rect x="614" y="747" width="9" height="1" fill="rgb(0,0,0)"/><rect x="631" y="747" width="9" height="1" fill="rgb(0,0,0)"/><rect x="614" y="748" width="9" height="1" fill="rgb(0,0,0)"/><rect x="631" y="748" width="9" height="1" fill="rgb(0,0,0)"/><rect x="614" y="749" width="26" height="1" fill="rgb(0,0,0)"/><rect x="614" y="750" width="26" height="1" fill="rgb(0,0,0)"/><rect x="614" y="751" width="26" height="1" fill="rgb(0,0,0)"/><rect x="614" y="752" width="26" height="1" fill="rgb(0,0,0)"/><rect x="614" y="753" width="26" height="1" fill="rgb(0,0,0)"/><rect x="614" y="754" width="26" height="1" fill="rgb(0,0,0)"/><rect x="614" y="755" width="26" height="1" fill="rgb(0,0,0)"/><rect x="614" y="756" width="26" height="1" fill="rgb(0,0,0)"/><rect x="615" y="757" width="22" height="1" fill="rgb(0,0,0)"/><rect x="618" y="758" width="18" height="1" fill="rgb(0,0,0)"/><rect x="618" y="759" width="18" height="1" fill="rgb(0,0,0)"/><rect x="618" y="760" width="18" height="1" fill="rgb(0,0,0)"/><rect x="618" y="761" width="18" height="1" fill="rgb(0,0,0)"/><rect x="618" y="762" width="18" height="1" fill="rgb(0,0,0)"/><rect x="618" y="763" width="18" height="1" fill="rgb(0,0,0)"/><rect x="618" y="764" width="18" height="1" fill="rgb(0,0,0)"/><rect x="618" y="765" width="18" height="1" fill="rgb(0,0,0)"/><rect x="618" y="766" width="18" height="1" fill="rgb(0,0,0)"/><rect x="623" y="767" width="8" height="1" fill="rgb(0,0,0)"/><rect x="623" y="768" width="8" height="1" fill="rgb(0,0,0)"/><rect x="623" y="769" width="8" height="1" fill="rgb(0,0,0)"/><rect x="623" y="770" width="8" height="1" fill="rgb(0,0,0)"/><rect x="623" y="771" width="8" height="1" fill="rgb(0,0,0)"/><rect x="623" y="772" width="8" height="1" fill="rgb(0,0,0)"/><rect x="623" y="773" width="8" height="1" fill="rgb(0,0,0)"/><rect x="623" y="774" width="8" height="1" fill="rgb(0,0,0)"/><rect x="623" y="775" width="8" height="1" fill="rgb(0,0,0)"/><rect x="623" y="776" width="8" height="1" fill="rgb(0,0,0)"/><rect x="623" y="777" width="8" height="1" fill="rgb(0,0,0)"/><rect x="623" y="778" width="8" height="1" fill="rgb(0,0,0)"/><rect x="623" y="779" width="8" height="1" fill="rgb(0,0,0)"/><rect x="606" y="814" width="8" height="1" fill="rgb(0,0,0)"/><rect x="640" y="814" width="7" height="1" fill="rgb(0,0,0)"/><rect x="606" y="815" width="8" height="1" fill="rgb(0,0,0)"/><rect x="640" y="815" width="8" height="1" fill="rgb(0,0,0)"/><rect x="606" y="816" width="8" height="1" fill="rgb(0,0,0)"/><rect x="640" y="816" width="8" height="1" fill="rgb(0,0,0)"/><rect x="606" y="817" width="8" height="1" fill="rgb(0,0,0)"/><rect x="640" y="817" width="8" height="1" fill="rgb(0,0,0)"/><rect x="606" y="818" width="8" height="1" fill="rgb(0,0,0)"/><rect x="640" y="818" width="8" height="1" fill="rgb(0,0,0)"/><rect x="606" y="819" width="8" height="1" fill="rgb(0,0,0)"/><rect x="640" y="819" width="8" height="1" fill="rgb(0,0,0)"/><rect x="606" y="820" width="8" height="1" fill="rgb(0,0,0)"/><rect x="640" y="820" width="8" height="1" fill="rgb(0,0,0)"/><rect x="606" y="821" width="8" height="1" fill="rgb(0,0,0)"/><rect x="640" y="821" width="8" height="1" fill="rgb(0,0,0)"/><rect x="601" y="822" width="18" height="1" fill="rgb(0,0,0)"/><rect x="635" y="822" width="17" height="1" fill="rgb(0,0,0)"/><rect x="601" y="823" width="19" height="1" fill="rgb(0,0,0)"/><rect x="635" y="823" width="18" height="1" fill="rgb(0,0,0)"/><rect x="601" y="824" width="19" height="1" fill="rgb(0,0,0)"/><rect x="635" y="824" width="18" height="1" fill="rgb(0,0,0)"/><rect x="601" y="825" width="19" height="1" fill="rgb(0,0,0)"/><rect x="635" y="825" width="18" height="1" fill="rgb(0,0,0)"/><rect x="601" y="826" width="19" height="1" fill="rgb(0,0,0)"/><rect x="635" y="826" width="18" height="1" fill="rgb(0,0,0)"/><rect x="601" y="827" width="19" height="1" fill="rgb(0,0,0)"/><rect x="635" y="827" width="18" height="1" fill="rgb(0,0,0)"/><rect x="601" y="828" width="19" height="1" fill="rgb(0,0,0)"/><rect x="635" y="828" width="18" height="1" fill="rgb(0,0,0)"/><rect x="601" y="829" width="19" height="1" fill="rgb(0,0,0)"/><rect x="635" y="829" width="18" height="1" fill="rgb(0,0,0)"/><rect x="665" y="829" width="15" height="1" fill="rgb(0,0,0)"/><rect x="601" y="830" width="19" height="1" fill="rgb(0,0,0)"/><rect x="635" y="830" width="18" height="1" fill="rgb(0,0,0)"/><rect x="665" y="830" width="15" height="1" fill="rgb(0,0,0)"/><rect x="601" y="831" width="18" height="1" fill="rgb(0,0,0)"/><rect x="635" y="831" width="18" height="1" fill="rgb(0,0,0)"/><rect x="665" y="831" width="15" height="1" fill="rgb(0,0,0)"/><rect x="601" y="832" width="18" height="1" fill="rgb(0,0,0)"/><rect x="635" y="832" width="18" height="1" fill="rgb(0,0,0)"/><rect x="665" y="832" width="15" height="1" fill="rgb(0,0,0)"/><rect x="601" y="833" width="18" height="1" fill="rgb(0,0,0)"/><rect x="635" y="833" width="18" height="1" fill="rgb(0,0,0)"/><rect x="665" y="833" width="15" height="1" fill="rgb(0,0,0)"/><rect x="601" y="834" width="18" height="1" fill="rgb(0,0,0)"/><rect x="635" y="834" width="18" height="1" fill="rgb(0,0,0)"/><rect x="665" y="834" width="15" height="1" fill="rgb(0,0,0)"/><rect x="601" y="835" width="18" height="1" fill="rgb(0,0,0)"/><rect x="635" y="835" width="18" height="1" fill="rgb(0,0,0)"/><rect x="665" y="835" width="15" height="1" fill="rgb(0,0,0)"/><rect x="601" y="836" width="15" height="1" fill="rgb(0,0,0)"/><rect x="617" y="836" width="2" height="1" fill="rgb(0,0,0)"/><rect x="635" y="836" width="18" height="1" fill="rgb(0,0,0)"/><rect x="665" y="836" width="15" height="1" fill="rgb(0,0,0)"/><rect x="606" y="837" width="9" height="1" fill="rgb(0,0,0)"/><rect x="639" y="837" width="8" height="1" fill="rgb(0,0,0)"/><rect x="665" y="837" width="15" height="1" fill="rgb(0,0,0)"/><rect x="607" y="838" width="8" height="1" fill="rgb(0,0,0)"/><rect x="639" y="838" width="8" height="1" fill="rgb(0,0,0)"/><rect x="665" y="838" width="15" height="1" fill="rgb(0,0,0)"/><rect x="607" y="839" width="8" height="1" fill="rgb(0,0,0)"/><rect x="639" y="839" width="8" height="1" fill="rgb(0,0,0)"/><rect x="665" y="839" width="16" height="1" fill="rgb(0,0,0)"/><rect x="608" y="840" width="7" height="1" fill="rgb(0,0,0)"/><rect x="639" y="840" width="8" height="1" fill="rgb(0,0,0)"/><rect x="665" y="840" width="16" height="1" fill="rgb(0,0,0)"/><rect x="608" y="841" width="7" height="1" fill="rgb(0,0,0)"/><rect x="639" y="841" width="8" height="1" fill="rgb(0,0,0)"/><rect x="665" y="841" width="16" height="1" fill="rgb(0,0,0)"/><rect x="608" y="842" width="7" height="1" fill="rgb(0,0,0)"/><rect x="639" y="842" width="8" height="1" fill="rgb(0,0,0)"/><rect x="665" y="842" width="16" height="1" fill="rgb(0,0,0)"/><rect x="606" y="843" width="17" height="1" fill="rgb(0,0,0)"/><rect x="631" y="843" width="19" height="1" fill="rgb(0,0,0)"/><rect x="665" y="843" width="16" height="1" fill="rgb(0,0,0)"/><rect x="605" y="844" width="18" height="1" fill="rgb(0,0,0)"/><rect x="631" y="844" width="19" height="1" fill="rgb(0,0,0)"/><rect x="665" y="844" width="16" height="1" fill="rgb(0,0,0)"/><rect x="605" y="845" width="18" height="1" fill="rgb(0,0,0)"/><rect x="631" y="845" width="19" height="1" fill="rgb(0,0,0)"/><rect x="665" y="845" width="9" height="1" fill="rgb(0,0,0)"/><rect x="605" y="846" width="18" height="1" fill="rgb(0,0,0)"/><rect x="631" y="846" width="19" height="1" fill="rgb(0,0,0)"/><rect x="665" y="846" width="8" height="1" fill="rgb(0,0,0)"/><rect x="605" y="847" width="18" height="1" fill="rgb(0,0,0)"/><rect x="631" y="847" width="19" height="1" fill="rgb(0,0,0)"/><rect x="665" y="847" width="9" height="1" fill="rgb(0,0,0)"/><rect x="605" y="848" width="18" height="1" fill="rgb(0,0,0)"/><rect x="631" y="848" width="19" height="1" fill="rgb(0,0,0)"/><rect x="667" y="848" width="7" height="1" fill="rgb(0,0,0)"/><rect x="605" y="849" width="18" height="1" fill="rgb(0,0,0)"/><rect x="631" y="849" width="19" height="1" fill="rgb(0,0,0)"/><rect x="667" y="849" width="7" height="1" fill="rgb(0,0,0)"/><rect x="605" y="850" width="18" height="1" fill="rgb(0,0,0)"/><rect x="631" y="850" width="19" height="1" fill="rgb(0,0,0)"/><rect x="667" y="850" width="7" height="1" fill="rgb(0,0,0)"/><rect x="605" y="851" width="18" height="1" fill="rgb(0,0,0)"/><rect x="631" y="851" width="19" height="1" fill="rgb(0,0,0)"/><rect x="659" y="851" width="16" height="1" fill="rgb(0,0,0)"/><rect x="605" y="852" width="18" height="1" fill="rgb(0,0,0)"/><rect x="631" y="852" width="19" height="1" fill="rgb(0,0,0)"/><rect x="659" y="852" width="16" height="1" fill="rgb(0,0,0)"/><rect x="605" y="853" width="18" height="1" fill="rgb(0,0,0)"/><rect x="631" y="853" width="19" height="1" fill="rgb(0,0,0)"/><rect x="659" y="853" width="16" height="1" fill="rgb(0,0,0)"/><rect x="605" y="854" width="18" height="1" fill="rgb(0,0,0)"/><rect x="631" y="854" width="19" height="1" fill="rgb(0,0,0)"/><rect x="659" y="854" width="16" height="1" fill="rgb(0,0,0)"/><rect x="605" y="855" width="18" height="1" fill="rgb(0,0,0)"/><rect x="631" y="855" width="19" height="1" fill="rgb(0,0,0)"/><rect x="659" y="855" width="16" height="1" fill="rgb(0,0,0)"/><rect x="605" y="856" width="18" height="1" fill="rgb(0,0,0)"/><rect x="631" y="856" width="19" height="1" fill="rgb(0,0,0)"/><rect x="659" y="856" width="16" height="1" fill="rgb(0,0,0)"/><rect x="605" y="857" width="18" height="1" fill="rgb(0,0,0)"/><rect x="631" y="857" width="19" height="1" fill="rgb(0,0,0)"/><rect x="659" y="857" width="16" height="1" fill="rgb(0,0,0)"/><rect x="605" y="858" width="18" height="1" fill="rgb(0,0,0)"/><rect x="631" y="858" width="19" height="1" fill="rgb(0,0,0)"/><rect x="659" y="858" width="16" height="1" fill="rgb(0,0,0)"/><rect x="605" y="859" width="18" height="1" fill="rgb(0,0,0)"/><rect x="631" y="859" width="19" height="1" fill="rgb(0,0,0)"/><rect x="659" y="859" width="16" height="1" fill="rgb(0,0,0)"/><rect x="605" y="860" width="18" height="1" fill="rgb(0,0,0)"/><rect x="631" y="860" width="19" height="1" fill="rgb(0,0,0)"/><rect x="659" y="860" width="16" height="1" fill="rgb(0,0,0)"/><rect x="606" y="861" width="16" height="1" fill="rgb(0,0,0)"/><rect x="636" y="861" width="11" height="1" fill="rgb(0,0,0)"/><rect x="659" y="861" width="16" height="1" fill="rgb(0,0,0)"/><rect x="607" y="862" width="11" height="1" fill="rgb(0,0,0)"/><rect x="636" y="862" width="7" height="1" fill="rgb(0,0,0)"/><rect x="659" y="862" width="16" height="1" fill="rgb(0,0,0)"/><rect x="610" y="863" width="8" height="1" fill="rgb(0,0,0)"/><rect x="636" y="863" width="7" height="1" fill="rgb(0,0,0)"/><rect x="659" y="863" width="16" height="1" fill="rgb(0,0,0)"/><rect x="610" y="864" width="8" height="1" fill="rgb(0,0,0)"/><rect x="636" y="864" width="7" height="1" fill="rgb(0,0,0)"/><rect x="659" y="864" width="16" height="1" fill="rgb(0,0,0)"/><rect x="611" y="865" width="7" height="1" fill="rgb(0,0,0)"/><rect x="636" y="865" width="7" height="1" fill="rgb(0,0,0)"/><rect x="659" y="865" width="16" height="1" fill="rgb(0,0,0)"/><rect x="610" y="866" width="8" height="1" fill="rgb(0,0,0)"/><rect x="631" y="866" width="12" height="1" fill="rgb(0,0,0)"/><rect x="659" y="866" width="16" height="1" fill="rgb(0,0,0)"/><rect x="606" y="867" width="17" height="1" fill="rgb(0,0,0)"/><rect x="631" y="867" width="16" height="1" fill="rgb(0,0,0)"/><rect x="659" y="867" width="16" height="1" fill="rgb(0,0,0)"/><rect x="606" y="868" width="17" height="1" fill="rgb(0,0,0)"/><rect x="631" y="868" width="17" height="1" fill="rgb(0,0,0)"/><rect x="662" y="868" width="7" height="1" fill="rgb(0,0,0)"/><rect x="606" y="869" width="17" height="1" fill="rgb(0,0,0)"/><rect x="631" y="869" width="17" height="1" fill="rgb(0,0,0)"/><rect x="662" y="869" width="7" height="1" fill="rgb(0,0,0)"/><rect x="606" y="870" width="17" height="1" fill="rgb(0,0,0)"/><rect x="631" y="870" width="17" height="1" fill="rgb(0,0,0)"/><rect x="662" y="870" width="7" height="1" fill="rgb(0,0,0)"/><rect x="606" y="871" width="17" height="1" fill="rgb(0,0,0)"/><rect x="631" y="871" width="17" height="1" fill="rgb(0,0,0)"/><rect x="662" y="871" width="7" height="1" fill="rgb(0,0,0)"/><rect x="606" y="872" width="17" height="1" fill="rgb(0,0,0)"/><rect x="631" y="872" width="17" height="1" fill="rgb(0,0,0)"/><rect x="660" y="872" width="9" height="1" fill="rgb(0,0,0)"/><rect x="606" y="873" width="17" height="1" fill="rgb(0,0,0)"/><rect x="631" y="873" width="17" height="1" fill="rgb(0,0,0)"/><rect x="653" y="873" width="17" height="1" fill="rgb(0,0,0)"/><rect x="606" y="874" width="17" height="1" fill="rgb(0,0,0)"/><rect x="631" y="874" width="17" height="1" fill="rgb(0,0,0)"/><rect x="653" y="874" width="17" height="1" fill="rgb(0,0,0)"/><rect x="606" y="875" width="17" height="1" fill="rgb(0,0,0)"/><rect x="631" y="875" width="17" height="1" fill="rgb(0,0,0)"/><rect x="653" y="875" width="17" height="1" fill="rgb(0,0,0)"/><rect x="606" y="876" width="17" height="1" fill="rgb(0,0,0)"/><rect x="631" y="876" width="17" height="1" fill="rgb(0,0,0)"/><rect x="653" y="876" width="17" height="1" fill="rgb(0,0,0)"/><rect x="606" y="877" width="17" height="1" fill="rgb(0,0,0)"/><rect x="631" y="877" width="17" height="1" fill="rgb(0,0,0)"/><rect x="653" y="877" width="17" height="1" fill="rgb(0,0,0)"/><rect x="606" y="878" width="17" height="1" fill="rgb(0,0,0)"/><rect x="631" y="878" width="17" height="1" fill="rgb(0,0,0)"/><rect x="653" y="878" width="17" height="1" fill="rgb(0,0,0)"/><rect x="606" y="879" width="17" height="1" fill="rgb(0,0,0)"/><rect x="631" y="879" width="17" height="1" fill="rgb(0,0,0)"/><rect x="653" y="879" width="17" height="1" fill="rgb(0,0,0)"/><rect x="606" y="880" width="17" height="1" fill="rgb(0,0,0)"/><rect x="631" y="880" width="17" height="1" fill="rgb(0,0,0)"/><rect x="653" y="880" width="17" height="1" fill="rgb(0,0,0)"/><rect x="606" y="881" width="17" height="1" fill="rgb(0,0,0)"/><rect x="631" y="881" width="17" height="1" fill="rgb(0,0,0)"/><rect x="653" y="881" width="17" height="1" fill="rgb(0,0,0)"/><rect x="606" y="882" width="17" height="1" fill="rgb(0,0,0)"/><rect x="631" y="882" width="17" height="1" fill="rgb(0,0,0)"/><rect x="653" y="882" width="17" height="1" fill="rgb(0,0,0)"/><rect x="606" y="883" width="17" height="1" fill="rgb(0,0,0)"/><rect x="631" y="883" width="17" height="1" fill="rgb(0,0,0)"/><rect x="653" y="883" width="17" height="1" fill="rgb(0,0,0)"/><rect x="606" y="884" width="17" height="1" fill="rgb(0,0,0)"/><rect x="631" y="884" width="17" height="1" fill="rgb(0,0,0)"/><rect x="653" y="884" width="17" height="1" fill="rgb(0,0,0)"/><rect x="606" y="885" width="17" height="1" fill="rgb(0,0,0)"/><rect x="631" y="885" width="17" height="1" fill="rgb(0,0,0)"/><rect x="653" y="885" width="17" height="1" fill="rgb(0,0,0)"/><rect x="606" y="886" width="17" height="1" fill="rgb(0,0,0)"/><rect x="631" y="886" width="17" height="1" fill="rgb(0,0,0)"/><rect x="653" y="886" width="17" height="1" fill="rgb(0,0,0)"/><rect x="606" y="887" width="17" height="1" fill="rgb(0,0,0)"/><rect x="631" y="887" width="17" height="1" fill="rgb(0,0,0)"/><rect x="653" y="887" width="17" height="1" fill="rgb(0,0,0)"/><rect x="607" y="888" width="16" height="1" fill="rgb(0,0,0)"/><rect x="631" y="888" width="16" height="1" fill="rgb(0,0,0)"/><rect x="653" y="888" width="17" height="1" fill="rgb(0,0,0)"/><rect x="611" y="889" width="12" height="1" fill="rgb(0,0,0)"/><rect x="633" y="889" width="10" height="1" fill="rgb(0,0,0)"/><rect x="653" y="889" width="17" height="1" fill="rgb(0,0,0)"/><rect x="611" y="890" width="12" height="1" fill="rgb(0,0,0)"/><rect x="633" y="890" width="10" height="1" fill="rgb(0,0,0)"/><rect x="653" y="890" width="17" height="1" fill="rgb(0,0,0)"/><rect x="611" y="891" width="12" height="1" fill="rgb(0,0,0)"/><rect x="633" y="891" width="10" height="1" fill="rgb(0,0,0)"/><rect x="653" y="891" width="16" height="1" fill="rgb(0,0,0)"/><rect x="611" y="892" width="32" height="1" fill="rgb(0,0,0)"/><rect x="653" y="892" width="16" height="1" fill="rgb(0,0,0)"/><rect x="611" y="893" width="32" height="1" fill="rgb(0,0,0)"/><rect x="653" y="893" width="16" height="1" fill="rgb(0,0,0)"/><rect x="590" y="894" width="11" height="1" fill="rgb(0,0,0)"/><rect x="611" y="894" width="32" height="1" fill="rgb(0,0,0)"/><rect x="653" y="894" width="12" height="1" fill="rgb(0,0,0)"/><rect x="590" y="895" width="11" height="1" fill="rgb(0,0,0)"/><rect x="607" y="895" width="36" height="1" fill="rgb(0,0,0)"/><rect x="653" y="895" width="11" height="1" fill="rgb(0,0,0)"/><rect x="590" y="896" width="70" height="1" fill="rgb(0,0,0)"/><rect x="591" y="897" width="69" height="1" fill="rgb(0,0,0)"/><rect x="591" y="898" width="69" height="1" fill="rgb(0,0,0)"/><rect x="591" y="899" width="69" height="1" fill="rgb(0,0,0)"/><rect x="591" y="900" width="68" height="1" fill="rgb(0,0,0)"/><rect x="591" y="901" width="68" height="1" fill="rgb(0,0,0)"/><rect x="663" y="902" width="4" height="1" fill="rgb(0,0,0)"/><rect x="662" y="903" width="5" height="1" fill="rgb(0,0,0)"/><rect x="630" y="916" width="64" height="1" fill="rgb(0,0,0)"/><rect x="631" y="917" width="63" height="1" fill="rgb(0,0,0)"/><rect x="631" y="918" width="63" height="1" fill="rgb(0,0,0)"/><rect x="631" y="919" width="63" height="1" fill="rgb(0,0,0)"/><rect x="631" y="920" width="62" height="1" fill="rgb(0,0,0)"/></svg>