<svg xmlns="http://www.w3.org/2000/svg" width="2040" height="1500" viewBox="0 0 2040 1500" shape-rendering="crispEdges"><rect x="739" y="258" width="27" height="1" fill="rgb(0,0,0)"/><rect x="739" y="259" width="27" height="1" fill="rgb(0,0,0)"/><rect x="739" y="260" width="27" height="1" fill="rgb(0,0,0)"/><rect x="739" y="261" width="27" height="1" fill="rgb(0,0,0)"/><rect x="739" y="262" width="27" height="1" fill="rgb(0,0,0)"/><rect x="740" y="263" width="26" height="1" fill="rgb(0,0,0)"/><rect x="742" y="264" width="24" height="1" fill="rgb(0,0,0)"/><rect x="742" y="265" width="34" height="1" fill="rgb(0,0,0)"/><rect x="742" y="266" width="35" height="1" fill="rgb(0,0,0)"/><rect x="735" y="267" width="5" height="1" fill="rgb(0,0,0)"/><rect x="741" y="267" width="36" height="1" fill="rgb(0,0,0)"/><rect x="735" y="268" width="42" height="1" fill="rgb(0,0,0)"/><rect x="735" y="269" width="42" height="1" fill="rgb(0,0,0)"/><rect x="735" y="270" width="42" height="1" fill="rgb(0,0,0)"/><rect x="735" y="271" width="42" height="1" fill="rgb(0,0,0)"/><rect x="778" y="271" width="1" height="1" fill="rgb(0,0,0)"/><rect x="735" y="272" width="50" height="1" fill="rgb(0,0,0)"/><rect x="735" y="273" width="50" height="1" fill="rgb(0,0,0)"/><rect x="740" y="274" width="45" height="1" fill="rgb(0,0,0)"/><rect x="740" y="275" width="45" height="1" fill="rgb(0,0,0)"/><rect x="740" y="276" width="45" height="1" fill="rgb(0,0,0)"/><rect x="740" y="277" width="45" height="1" fill="rgb(0,0,0)"/><rect x="739" y="278" width="46" height="1" fill="rgb(0,0,0)"/><rect x="739" y="279" width="46" height="1" fill="rgb(0,0,0)"/><rect x="739" y="280" width="46" height="1" fill="rgb(0,0,0)"/><rect x="739" y="281" width="46" height="1" fill="rgb(0,0,0)"/><rect x="739" y="282" width="46" height="1" fill="rgb(0,0,0)"/><rect x="739" y="283" width="46" height="1" fill="rgb(0,0,0)"/><rect x="739" y="284" width="46" height="1" fill="rgb(0,0,0)"/><rect x="739" y="285" width="46" height="1" fill="rgb(0,0,0)"/><rect x="739" y="286" width="46" height="1" fill="rgb(0,0,0)"/><rect x="739" y="287" width="46" height="1" fill="rgb(0,0,0)"/><rect x="739" y="288" width="46" height="1" fill="rgb(0,0,0)"/><rect x="739" y="289" width="46" height="1" fill="rgb(0,0,0)"/><rect x="739" y="290" width="42" height="1" fill="rgb(0,0,0)"/><rect x="739" y="291" width="42" height="1" fill="rgb(0,0,0)"/><rect x="748" y="292" width="33" height="1" fill="rgb(0,0,0)"/><rect x="748" y="293" width="33" height="1" fill="rgb(0,0,0)"/><rect x="748" y="294" width="33" height="1" fill="rgb(0,0,0)"/><rect x="748" y="295" width="33" height="1" fill="rgb(0,0,0)"/><rect x="748" y="296" width="33" height="1" fill="rgb(0,0,0)"/><rect x="748" y="297" width="33" height="1" fill="rgb(0,0,0)"/><rect x="748" y="298" width="37" height="1" fill="rgb(0,0,0)"/><rect x="757" y="299" width="29" height="1" fill="rgb(0,0,0)"/><rect x="790" y="299" width="2" height="1" fill="rgb(0,0,0)"/><rect x="757" y="300" width="35" height="1" fill="rgb(0,0,0)"/><rect x="756" y="301" width="36" height="1" fill="rgb(0,0,0)"/><rect x="756" y="302" width="36" height="1" fill="rgb(0,0,0)"/><rect x="756" y="303" width="36" height="1" fill="rgb(0,0,0)"/><rect x="756" y="304" width="36" height="1" fill="rgb(0,0,0)"/><rect x="756" y="305" width="36" height="1" fill="rgb(0,0,0)"/><rect x="757" y="306" width="36" height="1" fill="rgb(0,0,0)"/><rect x="779" y="307" width="14" height="1" fill="rgb(0,0,0)"/><rect x="779" y="308" width="14" height="1" fill="rgb(0,0,0)"/><rect x="779" y="309" width="14" height="1" fill="rgb(0,0,0)"/><rect x="779" y="310" width="14" height="1" fill="rgb(0,0,0)"/><rect x="779" y="311" width="14" height="1" fill="rgb(0,0,0)"/><rect x="779" y="312" width="14" height="1" fill="rgb(0,0,0)"/><rect x="779" y="313" width="14" height="1" fill="rgb(0,0,0)"/><rect x="786" y="314" width="7" height="1" fill="rgb(0,0,0)"/><rect x="786" y="315" width="7" height="1" fill="rgb(0,0,0)"/><rect x="786" y="316" width="7" height="1" fill="rgb(0,0,0)"/><rect x="786" y="317" width="7" height="1" fill="rgb(0,0,0)"/><rect x="786" y="318" width="7" height="1" fill="rgb(0,0,0)"/><rect x="786" y="319" width="7" height="1" fill="rgb(0,0,0)"/><rect x="786" y="320" width="7" height="1" fill="rgb(0,0,0)"/><rect x="786" y="321" width="7" height="1" fill="rgb(0,0,0)"/><rect x="1274" y="258" width="27" height="1" fill="rgb(0,0,0)"/><rect x="1274" y="259" width="27" height="1" fill="rgb(0,0,0)"/><rect x="1274" y="260" width="27" height="1" fill="rgb(0,0,0)"/><rect x="1274" y="261" width="27" height="1" fill="rgb(0,0,0)"/><rect x="1274" y="262" width="27" height="1" fill="rgb(0,0,0)"/><rect x="1274" y="263" width="26" height="1" fill="rgb(0,0,0)"/><rect x="1274" y="264" width="25" height="1" fill="rgb(0,0,0)"/><rect x="1264" y="265" width="36" height="1" fill="rgb(0,0,0)"/><rect x="1264" y="266" width="41" height="1" fill="rgb(0,0,0)"/><rect x="1264" y="267" width="41" height="1" fill="rgb(0,0,0)"/><rect x="1264" y="268" width="41" height="1" fill="rgb(0,0,0)"/><rect x="1264" y="269" width="41" height="1" fill="rgb(0,0,0)"/><rect x="1264" y="270" width="41" height="1" fill="rgb(0,0,0)"/><rect x="1257" y="271" width="2" height="1" fill="rgb(0,0,0)"/><rect x="1260" y="271" width="45" height="1" fill="rgb(0,0,0)"/><rect x="1256" y="272" width="49" height="1" fill="rgb(0,0,0)"/><rect x="1257" y="273" width="48" height="1" fill="rgb(0,0,0)"/><rect x="1257" y="274" width="43" height="1" fill="rgb(0,0,0)"/><rect x="1257" y="275" width="43" height="1" fill="rgb(0,0,0)"/><rect x="1257" y="276" width="43" height="1" fill="rgb(0,0,0)"/><rect x="1257" y="277" width="43" height="1" fill="rgb(0,0,0)"/><rect x="1257" y="278" width="43" height="1" fill="rgb(0,0,0)"/><rect x="1257" y="279" width="43" height="1" fill="rgb(0,0,0)"/><rect x="1257" y="280" width="43" height="1" fill="rgb(0,0,0)"/><rect x="1257" y="281" width="43" height="1" fill="rgb(0,0,0)"/><rect x="1257" y="282" width="43" height="1" fill="rgb(0,0,0)"/><rect x="1257" y="283" width="43" height="1" fill="rgb(0,0,0)"/><rect x="1257" y="284" width="45" height="1" fill="rgb(0,0,0)"/><rect x="1257" y="285" width="45" height="1" fill="rgb(0,0,0)"/><rect x="1257" y="286" width="45" height="1" fill="rgb(0,0,0)"/><rect x="1257" y="287" width="45" height="1" fill="rgb(0,0,0)"/><rect x="1257" y="288" width="45" height="1" fill="rgb(0,0,0)"/><rect x="1257" y="289" width="45" height="1" fill="rgb(0,0,0)"/><rect x="1257" y="290" width="45" height="1" fill="rgb(0,0,0)"/><rect x="1259" y="291" width="43" height="1" fill="rgb(0,0,0)"/><rect x="1259" y="292" width="33" height="1" fill="rgb(0,0,0)"/><rect x="1259" y="293" width="33" height="1" fill="rgb(0,0,0)"/><rect x="1259" y="294" width="33" height="1" fill="rgb(0,0,0)"/><rect x="1259" y="295" width="33" height="1" fill="rgb(0,0,0)"/><rect x="1259" y="296" width="33" height="1" fill="rgb(0,0,0)"/><rect x="1259" y="297" width="33" height="1" fill="rgb(0,0,0)"/><rect x="1257" y="298" width="35" height="1" fill="rgb(0,0,0)"/><rect x="1249" y="299" width="35" height="1" fill="rgb(0,0,0)"/><rect x="1249" y="300" width="35" height="1" fill="rgb(0,0,0)"/><rect x="1249" y="301" width="35" height="1" fill="rgb(0,0,0)"/><rect x="1249" y="302" width="35" height="1" fill="rgb(0,0,0)"/><rect x="1249" y="303" width="35" height="1" fill="rgb(0,0,0)"/><rect x="1249" y="304" width="35" height="1" fill="rgb(0,0,0)"/><rect x="1249" y="305" width="35" height="1" fill="rgb(0,0,0)"/><rect x="1247" y="306" width="37" height="1" fill="rgb(0,0,0)"/><rect x="1247" y="307" width="14" height="1" fill="rgb(0,0,0)"/><rect x="1247" y="308" width="14" height="1" fill="rgb(0,0,0)"/><rect x="1247" y="309" width="14" height="1" fill="rgb(0,0,0)"/><rect x="1247" y="310" width="14" height="1" fill="rgb(0,0,0)"/><rect x="1247" y="311" width="14" height="1" fill="rgb(0,0,0)"/><rect x="1247" y="312" width="14" height="1" fill="rgb(0,0,0)"/><rect x="1247" y="313" width="14" height="1" fill="rgb(0,0,0)"/><rect x="1247" y="314" width="8" height="1" fill="rgb(0,0,0)"/><rect x="1247" y="315" width="8" height="1" fill="rgb(0,0,0)"/><rect x="1247" y="316" width="8" height="1" fill="rgb(0,0,0)"/><rect x="1247" y="317" width="8" height="1" fill="rgb(0,0,0)"/><rect x="1247" y="318" width="8" height="1" fill="rgb(0,0,0)"/><rect x="1247" y="319" width="8" height="1" fill="rgb(0,0,0)"/><rect x="1247" y="320" width="8" height="1" fill="rgb(0,0,0)"/><rect x="1247" y="321" width="7" height="1" fill="rgb(0,0,0)"/><rect x="779" y="525" width="7" height="1" fill="rgb(0,0,0)"/><rect x="779" y="526" width="7" height="1" fill="rgb(0,0,0)"/><rect x="779" y="527" width="7" height="1" fill="rgb(0,0,0)"/><rect x="779" y="528" width="7" height="1" fill="rgb(0,0,0)"/><rect x="779" y="529" width="7" height="1" fill="rgb(0,0,0)"/><rect x="779" y="530" width="7" height="1" fill="rgb(0,0,0)"/><rect x="779" y="531" width="7" height="1" fill="rgb(0,0,0)"/><rect x="779" y="532" width="7" height="1" fill="rgb(0,0,0)"/><rect x="772" y="533" width="14" height="1" fill="rgb(0,0,0)"/><rect x="772" y="534" width="14" height="1" fill="rgb(0,0,0)"/><rect x="772" y="535" width="14" height="1" fill="rgb(0,0,0)"/><rect x="772" y="536" width="14" height="1" fill="rgb(0,0,0)"/><rect x="772" y="537" width="14" height="1" fill="rgb(0,0,0)"/><rect x="772" y="538" width="14" height="1" fill="rgb(0,0,0)"/><rect x="771" y="539" width="15" height="1" fill="rgb(0,0,0)"/><rect x="748" y="540" width="38" height="1" fill="rgb(0,0,0)"/><rect x="748" y="541" width="38" height="1" fill="rgb(0,0,0)"/><rect x="748" y="542" width="38" height="1" fill="rgb(0,0,0)"/><rect x="748" y="543" width="38" height="1" fill="rgb(0,0,0)"/><rect x="748" y="544" width="32" height="1" fill="rgb(0,0,0)"/><rect x="748" y="545" width="32" height="1" fill="rgb(0,0,0)"/><rect x="748" y="546" width="32" height="1" fill="rgb(0,0,0)"/><rect x="738" y="547" width="42" height="1" fill="rgb(0,0,0)"/><rect x="738" y="548" width="42" height="1" fill="rgb(0,0,0)"/><rect x="738" y="549" width="42" height="1" fill="rgb(0,0,0)"/><rect x="738" y="550" width="42" height="1" fill="rgb(0,0,0)"/><rect x="738" y="551" width="42" height="1" fill="rgb(0,0,0)"/><rect x="738" y="552" width="42" height="1" fill="rgb(0,0,0)"/><rect x="738" y="553" width="42" height="1" fill="rgb(0,0,0)"/><rect x="738" y="554" width="42" height="1" fill="rgb(0,0,0)"/><rect x="738" y="555" width="42" height="1" fill="rgb(0,0,0)"/><rect x="738" y="556" width="42" height="1" fill="rgb(0,0,0)"/><rect x="738" y="557" width="42" height="1" fill="rgb(0,0,0)"/><rect x="738" y="558" width="42" height="1" fill="rgb(0,0,0)"/><rect x="738" y="559" width="42" height="1" fill="rgb(0,0,0)"/><rect x="739" y="560" width="41" height="1" fill="rgb(0,0,0)"/><rect x="741" y="561" width="39" height="1" fill="rgb(0,0,0)"/><rect x="741" y="562" width="39" height="1" fill="rgb(0,0,0)"/><rect x="741" y="563" width="39" height="1" fill="rgb(0,0,0)"/><rect x="741" y="564" width="39" height="1" fill="rgb(0,0,0)"/><rect x="741" y="565" width="39" height="1" fill="rgb(0,0,0)"/><rect x="741" y="566" width="39" height="1" fill="rgb(0,0,0)"/><rect x="735" y="567" width="45" height="1" fill="rgb(0,0,0)"/><rect x="735" y="568" width="45" height="1" fill="rgb(0,0,0)"/><rect x="735" y="569" width="45" height="1" fill="rgb(0,0,0)"/><rect x="735" y="570" width="45" height="1" fill="rgb(0,0,0)"/><rect x="735" y="571" width="38" height="1" fill="rgb(0,0,0)"/><rect x="735" y="572" width="38" height="1" fill="rgb(0,0,0)"/><rect x="735" y="573" width="38" height="1" fill="rgb(0,0,0)"/><rect x="735" y="574" width="38" height="1" fill="rgb(0,0,0)"/><rect x="735" y="575" width="38" height="1" fill="rgb(0,0,0)"/><rect x="735" y="576" width="38" height="1" fill="rgb(0,0,0)"/><rect x="735" y="577" width="38" height="1" fill="rgb(0,0,0)"/><rect x="740" y="578" width="26" height="1" fill="rgb(0,0,0)"/><rect x="767" y="578" width="4" height="1" fill="rgb(0,0,0)"/><rect x="741" y="579" width="25" height="1" fill="rgb(0,0,0)"/><rect x="740" y="580" width="26" height="1" fill="rgb(0,0,0)"/><rect x="740" y="581" width="10" height="1" fill="rgb(0,0,0)"/><rect x="756" y="581" width="10" height="1" fill="rgb(0,0,0)"/><rect x="739" y="582" width="11" height="1" fill="rgb(0,0,0)"/><rect x="756" y="582" width="10" height="1" fill="rgb(0,0,0)"/><rect x="739" y="583" width="11" height="1" fill="rgb(0,0,0)"/><rect x="756" y="583" width="10" height="1" fill="rgb(0,0,0)"/><rect x="739" y="584" width="11" height="1" fill="rgb(0,0,0)"/><rect x="756" y="584" width="10" height="1" fill="rgb(0,0,0)"/><rect x="740" y="585" width="9" height="1" fill="rgb(0,0,0)"/><rect x="1254" y="525" width="7" height="1" fill="rgb(0,0,0)"/><rect x="1254" y="526" width="7" height="1" fill="rgb(0,0,0)"/><rect x="1254" y="527" width="7" height="1" fill="rgb(0,0,0)"/><rect x="1254" y="528" width="7" height="1" fill="rgb(0,0,0)"/><rect x="1254" y="529" width="7" height="1" fill="rgb(0,0,0)"/><rect x="1254" y="530" width="7" height="1" fill="rgb(0,0,0)"/><rect x="1254" y="531" width="7" height="1" fill="rgb(0,0,0)"/><rect x="1254" y="532" width="7" height="1" fill="rgb(0,0,0)"/><rect x="1254" y="533" width="14" height="1" fill="rgb(0,0,0)"/><rect x="1254" y="534" width="14" height="1" fill="rgb(0,0,0)"/><rect x="1254" y="535" width="14" height="1" fill="rgb(0,0,0)"/><rect x="1254" y="536" width="14" height="1" fill="rgb(0,0,0)"/><rect x="1254" y="537" width="14" height="1" fill="rgb(0,0,0)"/><rect x="1254" y="538" width="14" height="1" fill="rgb(0,0,0)"/><rect x="1254" y="539" width="29" height="1" fill="rgb(0,0,0)"/><rect x="1287" y="539" width="4" height="1" fill="rgb(0,0,0)"/><rect x="1254" y="540" width="38" height="1" fill="rgb(0,0,0)"/><rect x="1254" y="541" width="38" height="1" fill="rgb(0,0,0)"/><rect x="1254" y="542" width="38" height="1" fill="rgb(0,0,0)"/><rect x="1254" y="543" width="38" height="1" fill="rgb(0,0,0)"/><rect x="1260" y="544" width="32" height="1" fill="rgb(0,0,0)"/><rect x="1260" y="545" width="32" height="1" fill="rgb(0,0,0)"/><rect x="1260" y="546" width="32" height="1" fill="rgb(0,0,0)"/><rect x="1260" y="547" width="44" height="1" fill="rgb(0,0,0)"/><rect x="1260" y="548" width="44" height="1" fill="rgb(0,0,0)"/><rect x="1260" y="549" width="44" height="1" fill="rgb(0,0,0)"/><rect x="1260" y="550" width="44" height="1" fill="rgb(0,0,0)"/><rect x="1260" y="551" width="44" height="1" fill="rgb(0,0,0)"/><rect x="1260" y="552" width="44" height="1" fill="rgb(0,0,0)"/><rect x="1260" y="553" width="44" height="1" fill="rgb(0,0,0)"/><rect x="1260" y="554" width="44" height="1" fill="rgb(0,0,0)"/><rect x="1260" y="555" width="44" height="1" fill="rgb(0,0,0)"/><rect x="1260" y="556" width="44" height="1" fill="rgb(0,0,0)"/><rect x="1260" y="557" width="44" height="1" fill="rgb(0,0,0)"/><rect x="1260" y="558" width="44" height="1" fill="rgb(0,0,0)"/><rect x="1260" y="559" width="44" height="1" fill="rgb(0,0,0)"/><rect x="1260" y="560" width="43" height="1" fill="rgb(0,0,0)"/><rect x="1260" y="561" width="40" height="1" fill="rgb(0,0,0)"/><rect x="1260" y="562" width="40" height="1" fill="rgb(0,0,0)"/><rect x="1260" y="563" width="40" height="1" fill="rgb(0,0,0)"/><rect x="1260" y="564" width="40" height="1" fill="rgb(0,0,0)"/><rect x="1260" y="565" width="40" height="1" fill="rgb(0,0,0)"/><rect x="1260" y="566" width="40" height="1" fill="rgb(0,0,0)"/><rect x="1260" y="567" width="45" height="1" fill="rgb(0,0,0)"/><rect x="1260" y="568" width="45" height="1" fill="rgb(0,0,0)"/><rect x="1260" y="569" width="45" height="1" fill="rgb(0,0,0)"/><rect x="1260" y="570" width="45" height="1" fill="rgb(0,0,0)"/><rect x="1267" y="571" width="38" height="1" fill="rgb(0,0,0)"/><rect x="1267" y="572" width="38" height="1" fill="rgb(0,0,0)"/><rect x="1267" y="573" width="38" height="1" fill="rgb(0,0,0)"/><rect x="1267" y="574" width="38" height="1" fill="rgb(0,0,0)"/><rect x="1267" y="575" width="38" height="1" fill="rgb(0,0,0)"/><rect x="1267" y="576" width="38" height="1" fill="rgb(0,0,0)"/><rect x="1267" y="577" width="38" height="1" fill="rgb(0,0,0)"/><rect x="1274" y="578" width="26" height="1" fill="rgb(0,0,0)"/><rect x="1274" y="579" width="26" height="1" fill="rgb(0,0,0)"/><rect x="1274" y="580" width="26" height="1" fill="rgb(0,0,0)"/><rect x="1274" y="581" width="10" height="1" fill="rgb(0,0,0)"/><rect x="1290" y="581" width="11" height="1" fill="rgb(0,0,0)"/><rect x="1274" y="582" width="10" height="1" fill="rgb(0,0,0)"/><rect x="1290" y="582" width="11" height="1" fill="rgb(0,0,0)"/><rect x="1274" y="583" width="10" height="1" fill="rgb(0,0,0)"/><rect x="1290" y="583" width="11" height="1" fill="rgb(0,0,0)"/><rect x="1274" y="584" width="10" height="1" fill="rgb(0,0,0)"/><rect x="1290" y="584" width="11" height="1" fill="rgb(0,0,0)"/><rect x="1291" y="585" width="9" height="1" fill="rgb(0,0,0)"/></svg>