<svg xmlns="http://www.w3.org/2000/svg" width="2040" height="1500" viewBox="0 0 2040 1500" shape-rendering="crispEdges"><rect x="1010" y="592" width="20" height="1" fill="rgb(0,0,0)"/><rect x="1010" y="593" width="20" height="1" fill="rgb(0,0,0)"/><rect x="1010" y="594" width="20" height="1" fill="rgb(0,0,0)"/><rect x="1010" y="595" width="20" height="1" fill="rgb(0,0,0)"/><rect x="1010" y="596" width="20" height="1" fill="rgb(0,0,0)"/><rect x="1010" y="597" width="20" height="1" fill="rgb(0,0,0)"/><rect x="1010" y="598" width="20" height="1" fill="rgb(0,0,0)"/><rect x="1009" y="599" width="22" height="1" fill="rgb(0,0,0)"/><rect x="1002" y="600" width="36" height="1" fill="rgb(0,0,0)"/><rect x="1002" y="601" width="36" height="1" fill="rgb(0,0,0)"/><rect x="1002" y="602" width="10" height="1" fill="rgb(0,0,0)"/><rect x="1017" y="602" width="6" height="1" fill="rgb(0,0,0)"/><rect x="1028" y="602" width="10" height="1" fill="rgb(0,0,0)"/><rect x="1002" y="603" width="10" height="1" fill="rgb(0,0,0)"/><rect x="1017" y="603" width="6" height="1" fill="rgb(0,0,0)"/><rect x="1028" y="603" width="10" height="1" fill="rgb(0,0,0)"/><rect x="1002" y="604" width="10" height="1" fill="rgb(0,0,0)"/><rect x="1016" y="604" width="7" height="1" fill="rgb(0,0,0)"/><rect x="1028" y="604" width="10" height="1" fill="rgb(0,0,0)"/><rect x="1002" y="605" width="10" height="1" fill="rgb(0,0,0)"/><rect x="1016" y="605" width="8" height="1" fill="rgb(0,0,0)"/><rect x="1028" y="605" width="10" height="1" fill="rgb(0,0,0)"/><rect x="1002" y="606" width="10" height="1" fill="rgb(0,0,0)"/><rect x="1016" y="606" width="8" height="1" fill="rgb(0,0,0)"/><rect x="1028" y="606" width="10" height="1" fill="rgb(0,0,0)"/><rect x="1002" y="607" width="10" height="1" fill="rgb(0,0,0)"/><rect x="1016" y="607" width="8" height="1" fill="rgb(0,0,0)"/><rect x="1028" y="607" width="10" height="1" fill="rgb(0,0,0)"/><rect x="1002" y="608" width="10" height="1" fill="rgb(0,0,0)"/><rect x="1016" y="608" width="8" height="1" fill="rgb(0,0,0)"/><rect x="1028" y="608" width="10" height="1" fill="rgb(0,0,0)"/><rect x="1002" y="609" width="10" height="1" fill="rgb(0,0,0)"/><rect x="1028" y="609" width="10" height="1" fill="rgb(0,0,0)"/><rect x="1002" y="610" width="10" height="1" fill="rgb(0,0,0)"/><rect x="1028" y="610" width="10" height="1" fill="rgb(0,0,0)"/><rect x="1002" y="611" width="10" height="1" fill="rgb(0,0,0)"/><rect x="1028" y="611" width="10" height="1" fill="rgb(0,0,0)"/><rect x="1002" y="612" width="10" height="1" fill="rgb(0,0,0)"/><rect x="1028" y="612" width="10" height="1" fill="rgb(0,0,0)"/><rect x="1002" y="613" width="10" height="1" fill="rgb(0,0,0)"/><rect x="1028" y="613" width="10" height="1" fill="rgb(0,0,0)"/><rect x="1002" y="614" width="10" height="1" fill="rgb(0,0,0)"/><rect x="1028" y="614" width="10" height="1" fill="rgb(0,0,0)"/><rect x="1002" y="615" width="10" height="1" fill="rgb(0,0,0)"/><rect x="1028" y="615" width="10" height="1" fill="rgb(0,0,0)"/><rect x="1002" y="616" width="10" height="1" fill="rgb(0,0,0)"/><rect x="1028" y="616" width="10" height="1" fill="rgb(0,0,0)"/><rect x="1002" y="617" width="36" height="1" fill="rgb(0,0,0)"/><rect x="1010" y="618" width="20" height="1" fill="rgb(0,0,0)"/><rect x="1010" y="619" width="20" height="1" fill="rgb(0,0,0)"/><rect x="1010" y="620" width="20" height="1" fill="rgb(0,0,0)"/><rect x="1010" y="621" width="20" height="1" fill="rgb(0,0,0)"/><rect x="1010" y="622" width="20" height="1" fill="rgb(0,0,0)"/><rect x="1010" y="623" width="20" height="1" fill="rgb(0,0,0)"/><rect x="1010" y="624" width="20" height="1" fill="rgb(0,0,0)"/><rect x="1010" y="625" width="20" height="1" fill="rgb(0,0,0)"/><rect x="1010" y="626" width="20" height="1" fill="rgb(0,0,0)"/><rect x="1010" y="627" width="20" height="1" fill="rgb(0,0,0)"/><rect x="1010" y="628" width="20" height="1" fill="rgb(0,0,0)"/><rect x="1010" y="629" width="20" height="1" fill="rgb(0,0,0)"/><rect x="1010" y="630" width="20" height="1" fill="rgb(0,0,0)"/><rect x="1010" y="631" width="20" height="1" fill="rgb(0,0,0)"/><rect x="1010" y="632" width="20" height="1" fill="rgb(0,0,0)"/><rect x="1010" y="633" width="20" height="1" fill="rgb(0,0,0)"/><rect x="1010" y="634" width="20" height="1" fill="rgb(0,0,0)"/><rect x="1010" y="635" width="20" height="1" fill="rgb(0,0,0)"/><rect x="1010" y="636" width="20" height="1" fill="rgb(0,0,0)"/><rect x="1010" y="637" width="20" height="1" fill="rgb(0,0,0)"/><rect x="1010" y="638" width="20" height="1" fill="rgb(0,0,0)"/><rect x="1010" y="639" width="20" height="1" fill="rgb(0,0,0)"/><rect x="1010" y="640" width="20" height="1" fill="rgb(0,0,0)"/><rect x="1010" y="641" width="20" height="1" fill="rgb(0,0,0)"/><rect x="1010" y="642" width="20" height="1" fill="rgb(0,0,0)"/><rect x="1010" y="643" width="21" height="1" fill="rgb(0,0,0)"/><rect x="1010" y="644" width="21" height="1" fill="rgb(0,0,0)"/><rect x="1010" y="645" width="21" height="1" fill="rgb(0,0,0)"/><rect x="1010" y="646" width="21" height="1" fill="rgb(0,0,0)"/><rect x="1010" y="647" width="21" height="1" fill="rgb(0,0,0)"/><rect x="1010" y="648" width="21" height="1" fill="rgb(0,0,0)"/><rect x="1010" y="649" width="21" height="1" fill="rgb(0,0,0)"/><rect x="1010" y="650" width="21" height="1" fill="rgb(0,0,0)"/><rect x="1010" y="651" width="21" height="1" fill="rgb(0,0,0)"/><rect x="1010" y="652" width="21" height="1" fill="rgb(0,0,0)"/><rect x="1010" y="653" width="21" height="1" fill="rgb(0,0,0)"/><rect x="1010" y="654" width="21" height="1" fill="rgb(0,0,0)"/><rect x="1010" y="655" width="21" height="1" fill="rgb(0,0,0)"/><rect x="1010" y="656" width="21" height="1" fill="rgb(0,0,0)"/><rect x="1008" y="657" width="24" height="1" fill="rgb(0,0,0)"/><rect x="1007" y="658" width="25" height="1" fill="rgb(0,0,0)"/><rect x="1007" y="659" width="25" height="1" fill="rgb(0,0,0)"/><rect x="1007" y="660" width="25" height="1" fill="rgb(0,0,0)"/><rect x="1007" y="661" width="25" height="1" fill="rgb(0,0,0)"/><rect x="1007" y="662" width="25" height="1" fill="rgb(0,0,0)"/><rect x="1007" y="663" width="25" height="1" fill="rgb(0,0,0)"/><rect x="1007" y="664" width="25" height="1" fill="rgb(0,0,0)"/><rect x="1008" y="665" width="24" height="1" fill="rgb(0,0,0)"/><rect x="1008" y="666" width="24" height="1" fill="rgb(0,0,0)"/><rect x="1008" y="667" width="24" height="1" fill="rgb(0,0,0)"/><rect x="1008" y="668" width="24" height="1" fill="rgb(0,0,0)"/><rect x="1008" y="669" width="24" height="1" fill="rgb(0,0,0)"/><rect x="1008" y="670" width="24" height="1" fill="rgb(0,0,0)"/><rect x="1008" y="671" width="24" height="1" fill="rgb(0,0,0)"/><rect x="1008" y="672" width="24" height="1" fill="rgb(0,0,0)"/><rect x="1008" y="673" width="24" height="1" fill="rgb(0,0,0)"/><rect x="1008" y="674" width="24" height="1" fill="rgb(0,0,0)"/><rect x="967" y="675" width="12" height="1" fill="rgb(0,0,0)"/><rect x="1007" y="675" width="25" height="1" fill="rgb(0,0,0)"/><rect x="1060" y="675" width="13" height="1" fill="rgb(0,0,0)"/><rect x="967" y="676" width="12" height="1" fill="rgb(0,0,0)"/><rect x="1007" y="676" width="26" height="1" fill="rgb(0,0,0)"/><rect x="1060" y="676" width="14" height="1" fill="rgb(0,0,0)"/><rect x="967" y="677" width="12" height="1" fill="rgb(0,0,0)"/><rect x="1007" y="677" width="26" height="1" fill="rgb(0,0,0)"/><rect x="1060" y="677" width="14" height="1" fill="rgb(0,0,0)"/><rect x="967" y="678" width="12" height="1" fill="rgb(0,0,0)"/><rect x="1007" y="678" width="26" height="1" fill="rgb(0,0,0)"/><rect x="1060" y="678" width="14" height="1" fill="rgb(0,0,0)"/><rect x="967" y="679" width="12" height="1" fill="rgb(0,0,0)"/><rect x="1007" y="679" width="26" height="1" fill="rgb(0,0,0)"/><rect x="1060" y="679" width="14" height="1" fill="rgb(0,0,0)"/><rect x="967" y="680" width="12" height="1" fill="rgb(0,0,0)"/><rect x="1007" y="680" width="26" height="1" fill="rgb(0,0,0)"/><rect x="1060" y="680" width="14" height="1" fill="rgb(0,0,0)"/><rect x="966" y="681" width="14" height="1" fill="rgb(0,0,0)"/><rect x="1007" y="681" width="26" height="1" fill="rgb(0,0,0)"/><rect x="1060" y="681" width="14" height="1" fill="rgb(0,0,0)"/><rect x="961" y="682" width="119" height="1" fill="rgb(0,0,0)"/><rect x="961" y="683" width="119" height="1" fill="rgb(0,0,0)"/><rect x="961" y="684" width="119" height="1" fill="rgb(0,0,0)"/><rect x="961" y="685" width="119" height="1" fill="rgb(0,0,0)"/><rect x="961" y="686" width="119" height="1" fill="rgb(0,0,0)"/><rect x="961" y="687" width="119" height="1" fill="rgb(0,0,0)"/><rect x="961" y="688" width="119" height="1" fill="rgb(0,0,0)"/><rect x="961" y="689" width="119" height="1" fill="rgb(0,0,0)"/><rect x="961" y="690" width="119" height="1" fill="rgb(0,0,0)"/><rect x="961" y="691" width="119" height="1" fill="rgb(0,0,0)"/><rect x="961" y="692" width="119" height="1" fill="rgb(0,0,0)"/><rect x="961" y="693" width="119" height="1" fill="rgb(0,0,0)"/><rect x="967" y="694" width="12" height="1" fill="rgb(0,0,0)"/><rect x="999" y="694" width="11" height="1" fill="rgb(0,0,0)"/><rect x="1015" y="694" width="9" height="1" fill="rgb(0,0,0)"/><rect x="1029" y="694" width="12" height="1" fill="rgb(0,0,0)"/><rect x="1060" y="694" width="14" height="1" fill="rgb(0,0,0)"/><rect x="967" y="695" width="13" height="1" fill="rgb(0,0,0)"/><rect x="999" y="695" width="11" height="1" fill="rgb(0,0,0)"/><rect x="1015" y="695" width="9" height="1" fill="rgb(0,0,0)"/><rect x="1029" y="695" width="12" height="1" fill="rgb(0,0,0)"/><rect x="1060" y="695" width="14" height="1" fill="rgb(0,0,0)"/><rect x="967" y="696" width="12" height="1" fill="rgb(0,0,0)"/><rect x="999" y="696" width="11" height="1" fill="rgb(0,0,0)"/><rect x="1015" y="696" width="9" height="1" fill="rgb(0,0,0)"/><rect x="1029" y="696" width="12" height="1" fill="rgb(0,0,0)"/><rect x="1060" y="696" width="14" height="1" fill="rgb(0,0,0)"/><rect x="967" y="697" width="12" height="1" fill="rgb(0,0,0)"/><rect x="999" y="697" width="11" height="1" fill="rgb(0,0,0)"/><rect x="1016" y="697" width="8" height="1" fill="rgb(0,0,0)"/><rect x="1029" y="697" width="12" height="1" fill="rgb(0,0,0)"/><rect x="1060" y="697" width="14" height="1" fill="rgb(0,0,0)"/><rect x="967" y="698" width="12" height="1" fill="rgb(0,0,0)"/><rect x="999" y="698" width="11" height="1" fill="rgb(0,0,0)"/><rect x="1029" y="698" width="12" height="1" fill="rgb(0,0,0)"/><rect x="1060" y="698" width="14" height="1" fill="rgb(0,0,0)"/><rect x="967" y="699" width="12" height="1" fill="rgb(0,0,0)"/><rect x="999" y="699" width="12" height="1" fill="rgb(0,0,0)"/><rect x="1029" y="699" width="12" height="1" fill="rgb(0,0,0)"/><rect x="1060" y="699" width="14" height="1" fill="rgb(0,0,0)"/><rect x="967" y="700" width="12" height="1" fill="rgb(0,0,0)"/><rect x="999" y="700" width="17" height="1" fill="rgb(0,0,0)"/><rect x="1024" y="700" width="17" height="1" fill="rgb(0,0,0)"/><rect x="1060" y="700" width="14" height="1" fill="rgb(0,0,0)"/><rect x="999" y="701" width="17" height="1" fill="rgb(0,0,0)"/><rect x="1024" y="701" width="17" height="1" fill="rgb(0,0,0)"/><rect x="999" y="702" width="17" height="1" fill="rgb(0,0,0)"/><rect x="1024" y="702" width="17" height="1" fill="rgb(0,0,0)"/><rect x="999" y="703" width="17" height="1" fill="rgb(0,0,0)"/><rect x="1024" y="703" width="17" height="1" fill="rgb(0,0,0)"/><rect x="999" y="704" width="17" height="1" fill="rgb(0,0,0)"/><rect x="1024" y="704" width="17" height="1" fill="rgb(0,0,0)"/><rect x="999" y="705" width="17" height="1" fill="rgb(0,0,0)"/><rect x="1024" y="705" width="17" height="1" fill="rgb(0,0,0)"/><rect x="999" y="706" width="17" height="1" fill="rgb(0,0,0)"/><rect x="1024" y="706" width="17" height="1" fill="rgb(0,0,0)"/><rect x="999" y="707" width="17" height="1" fill="rgb(0,0,0)"/><rect x="1024" y="707" width="17" height="1" fill="rgb(0,0,0)"/><rect x="999" y="708" width="17" height="1" fill="rgb(0,0,0)"/><rect x="1024" y="708" width="17" height="1" fill="rgb(0,0,0)"/><rect x="999" y="709" width="17" height="1" fill="rgb(0,0,0)"/><rect x="1024" y="709" width="17" height="1" fill="rgb(0,0,0)"/><rect x="999" y="710" width="17" height="1" fill="rgb(0,0,0)"/><rect x="1024" y="710" width="17" height="1" fill="rgb(0,0,0)"/><rect x="999" y="711" width="17" height="1" fill="rgb(0,0,0)"/><rect x="1024" y="711" width="17" height="1" fill="rgb(0,0,0)"/><rect x="999" y="712" width="17" height="1" fill="rgb(0,0,0)"/><rect x="1024" y="712" width="17" height="1" fill="rgb(0,0,0)"/><rect x="999" y="713" width="17" height="1" fill="rgb(0,0,0)"/><rect x="1024" y="713" width="17" height="1" fill="rgb(0,0,0)"/><rect x="999" y="714" width="17" height="1" fill="rgb(0,0,0)"/><rect x="1024" y="714" width="17" height="1" fill="rgb(0,0,0)"/><rect x="999" y="715" width="17" height="1" fill="rgb(0,0,0)"/><rect x="1024" y="715" width="17" height="1" fill="rgb(0,0,0)"/><rect x="999" y="716" width="17" height="1" fill="rgb(0,0,0)"/><rect x="1024" y="716" width="17" height="1" fill="rgb(0,0,0)"/><rect x="999" y="717" width="17" height="1" fill="rgb(0,0,0)"/><rect x="1024" y="717" width="17" height="1" fill="rgb(0,0,0)"/><rect x="999" y="718" width="17" height="1" fill="rgb(0,0,0)"/><rect x="1024" y="718" width="17" height="1" fill="rgb(0,0,0)"/><rect x="999" y="719" width="17" height="1" fill="rgb(0,0,0)"/><rect x="1024" y="719" width="17" height="1" fill="rgb(0,0,0)"/><rect x="999" y="720" width="17" height="1" fill="rgb(0,0,0)"/><rect x="1024" y="720" width="17" height="1" fill="rgb(0,0,0)"/><rect x="999" y="721" width="17" height="1" fill="rgb(0,0,0)"/><rect x="1024" y="721" width="17" height="1" fill="rgb(0,0,0)"/><rect x="999" y="722" width="17" height="1" fill="rgb(0,0,0)"/><rect x="1024" y="722" width="17" height="1" fill="rgb(0,0,0)"/><rect x="999" y="723" width="17" height="1" fill="rgb(0,0,0)"/><rect x="1024" y="723" width="17" height="1" fill="rgb(0,0,0)"/><rect x="999" y="724" width="17" height="1" fill="rgb(0,0,0)"/><rect x="1024" y="724" width="17" height="1" fill="rgb(0,0,0)"/><rect x="999" y="725" width="17" height="1" fill="rgb(0,0,0)"/><rect x="1024" y="725" width="17" height="1" fill="rgb(0,0,0)"/><rect x="999" y="726" width="17" height="1" fill="rgb(0,0,0)"/><rect x="1024" y="726" width="17" height="1" fill="rgb(0,0,0)"/><rect x="999" y="727" width="17" height="1" fill="rgb(0,0,0)"/><rect x="1024" y="727" width="17" height="1" fill="rgb(0,0,0)"/><rect x="999" y="728" width="17" height="1" fill="rgb(0,0,0)"/><rect x="1024" y="728" width="17" height="1" fill="rgb(0,0,0)"/><rect x="999" y="729" width="17" height="1" fill="rgb(0,0,0)"/><rect x="1024" y="729" width="17" height="1" fill="rgb(0,0,0)"/><rect x="999" y="730" width="17" height="1" fill="rgb(0,0,0)"/><rect x="1024" y="730" width="17" height="1" fill="rgb(0,0,0)"/><rect x="999" y="731" width="17" height="1" fill="rgb(0,0,0)"/><rect x="1024" y="731" width="17" height="1" fill="rgb(0,0,0)"/><rect x="999" y="732" width="17" height="1" fill="rgb(0,0,0)"/><rect x="1024" y="732" width="17" height="1" fill="rgb(0,0,0)"/><rect x="999" y="733" width="17" height="1" fill="rgb(0,0,0)"/><rect x="1024" y="733" width="17" height="1" fill="rgb(0,0,0)"/><rect x="999" y="734" width="17" height="1" fill="rgb(0,0,0)"/><rect x="1024" y="734" width="17" height="1" fill="rgb(0,0,0)"/><rect x="999" y="735" width="17" height="1" fill="rgb(0,0,0)"/><rect x="1024" y="735" width="17" height="1" fill="rgb(0,0,0)"/><rect x="999" y="736" width="17" height="1" fill="rgb(0,0,0)"/><rect x="1024" y="736" width="17" height="1" fill="rgb(0,0,0)"/><rect x="999" y="737" width="17" height="1" fill="rgb(0,0,0)"/><rect x="1024" y="737" width="17" height="1" fill="rgb(0,0,0)"/><rect x="999" y="738" width="17" height="1" fill="rgb(0,0,0)"/><rect x="1024" y="738" width="17" height="1" fill="rgb(0,0,0)"/><rect x="999" y="739" width="17" height="1" fill="rgb(0,0,0)"/><rect x="1024" y="739" width="17" height="1" fill="rgb(0,0,0)"/><rect x="999" y="740" width="17" height="1" fill="rgb(0,0,0)"/><rect x="1024" y="740" width="17" height="1" fill="rgb(0,0,0)"/><rect x="999" y="741" width="17" height="1" fill="rgb(0,0,0)"/><rect x="1024" y="741" width="17" height="1" fill="rgb(0,0,0)"/><rect x="999" y="742" width="17" height="1" fill="rgb(0,0,0)"/><rect x="1024" y="742" width="17" height="1" fill="rgb(0,0,0)"/><rect x="999" y="743" width="17" height="1" fill="rgb(0,0,0)"/><rect x="1024" y="743" width="17" height="1" fill="rgb(0,0,0)"/><rect x="999" y="744" width="17" height="1" fill="rgb(0,0,0)"/><rect x="1024" y="744" width="17" height="1" fill="rgb(0,0,0)"/><rect x="999" y="745" width="17" height="1" fill="rgb(0,0,0)"/><rect x="1024" y="745" width="17" height="1" fill="rgb(0,0,0)"/><rect x="999" y="746" width="17" height="1" fill="rgb(0,0,0)"/><rect x="1024" y="746" width="17" height="1" fill="rgb(0,0,0)"/><rect x="999" y="747" width="17" height="1" fill="rgb(0,0,0)"/><rect x="1024" y="747" width="17" height="1" fill="rgb(0,0,0)"/><rect x="999" y="748" width="17" height="1" fill="rgb(0,0,0)"/><rect x="1024" y="748" width="17" height="1" fill="rgb(0,0,0)"/><rect x="999" y="749" width="17" height="1" fill="rgb(0,0,0)"/><rect x="1024" y="749" width="17" height="1" fill="rgb(0,0,0)"/><rect x="999" y="750" width="17" height="1" fill="rgb(0,0,0)"/><rect x="1024" y="750" width="17" height="1" fill="rgb(0,0,0)"/><rect x="999" y="751" width="17" height="1" fill="rgb(0,0,0)"/><rect x="1024" y="751" width="17" height="1" fill="rgb(0,0,0)"/><rect x="999" y="752" width="17" height="1" fill="rgb(0,0,0)"/><rect x="1024" y="752" width="17" height="1" fill="rgb(0,0,0)"/><rect x="999" y="753" width="17" height="1" fill="rgb(0,0,0)"/><rect x="1024" y="753" width="17" height="1" fill="rgb(0,0,0)"/><rect x="999" y="754" width="17" height="1" fill="rgb(0,0,0)"/><rect x="1024" y="754" width="17" height="1" fill="rgb(0,0,0)"/><rect x="999" y="755" width="17" height="1" fill="rgb(0,0,0)"/><rect x="1024" y="755" width="17" height="1" fill="rgb(0,0,0)"/><rect x="999" y="756" width="17" height="1" fill="rgb(0,0,0)"/><rect x="1024" y="756" width="17" height="1" fill="rgb(0,0,0)"/><rect x="999" y="757" width="17" height="1" fill="rgb(0,0,0)"/><rect x="1024" y="757" width="17" height="1" fill="rgb(0,0,0)"/><rect x="999" y="758" width="17" height="1" fill="rgb(0,0,0)"/><rect x="1024" y="758" width="17" height="1" fill="rgb(0,0,0)"/><rect x="999" y="759" width="17" height="1" fill="rgb(0,0,0)"/><rect x="1024" y="759" width="17" height="1" fill="rgb(0,0,0)"/><rect x="999" y="760" width="17" height="1" fill="rgb(0,0,0)"/><rect x="1024" y="760" width="17" height="1" fill="rgb(0,0,0)"/><rect x="999" y="761" width="17" height="1" fill="rgb(0,0,0)"/><rect x="1024" y="761" width="17" height="1" fill="rgb(0,0,0)"/><rect x="999" y="762" width="17" height="1" fill="rgb(0,0,0)"/><rect x="1024" y="762" width="17" height="1" fill="rgb(0,0,0)"/><rect x="999" y="763" width="17" height="1" fill="rgb(0,0,0)"/><rect x="1024" y="763" width="17" height="1" fill="rgb(0,0,0)"/><rect x="999" y="764" width="17" height="1" fill="rgb(0,0,0)"/><rect x="1024" y="764" width="17" height="1" fill="rgb(0,0,0)"/><rect x="999" y="765" width="17" height="1" fill="rgb(0,0,0)"/><rect x="1024" y="765" width="17" height="1" fill="rgb(0,0,0)"/><rect x="999" y="766" width="17" height="1" fill="rgb(0,0,0)"/><rect x="1024" y="766" width="17" height="1" fill="rgb(0,0,0)"/><rect x="999" y="767" width="17" height="1" fill="rgb(0,0,0)"/><rect x="1024" y="767" width="17" height="1" fill="rgb(0,0,0)"/><rect x="999" y="768" width="17" height="1" fill="rgb(0,0,0)"/><rect x="1024" y="768" width="17" height="1" fill="rgb(0,0,0)"/><rect x="999" y="769" width="17" height="1" fill="rgb(0,0,0)"/><rect x="1024" y="769" width="17" height="1" fill="rgb(0,0,0)"/><rect x="999" y="770" width="17" height="1" fill="rgb(0,0,0)"/><rect x="1024" y="770" width="17" height="1" fill="rgb(0,0,0)"/><rect x="999" y="771" width="17" height="1" fill="rgb(0,0,0)"/><rect x="1024" y="771" width="17" height="1" fill="rgb(0,0,0)"/><rect x="999" y="772" width="17" height="1" fill="rgb(0,0,0)"/><rect x="1024" y="772" width="17" height="1" fill="rgb(0,0,0)"/><rect x="999" y="773" width="17" height="1" fill="rgb(0,0,0)"/><rect x="1024" y="773" width="17" height="1" fill="rgb(0,0,0)"/><rect x="999" y="774" width="17" height="1" fill="rgb(0,0,0)"/><rect x="1024" y="774" width="17" height="1" fill="rgb(0,0,0)"/><rect x="999" y="775" width="17" height="1" fill="rgb(0,0,0)"/><rect x="1024" y="775" width="17" height="1" fill="rgb(0,0,0)"/><rect x="999" y="776" width="17" height="1" fill="rgb(0,0,0)"/><rect x="1024" y="776" width="17" height="1" fill="rgb(0,0,0)"/><rect x="999" y="777" width="17" height="1" fill="rgb(0,0,0)"/><rect x="1024" y="777" width="17" height="1" fill="rgb(0,0,0)"/><rect x="999" y="778" width="17" height="1" fill="rgb(0,0,0)"/><rect x="1024" y="778" width="17" height="1" fill="rgb(0,0,0)"/><rect x="999" y="779" width="17" height="1" fill="rgb(0,0,0)"/><rect x="1024" y="779" width="17" height="1" fill="rgb(0,0,0)"/><rect x="999" y="780" width="17" height="1" fill="rgb(0,0,0)"/><rect x="1024" y="780" width="17" height="1" fill="rgb(0,0,0)"/><rect x="999" y="781" width="17" height="1" fill="rgb(0,0,0)"/><rect x="1024" y="781" width="17" height="1" fill="rgb(0,0,0)"/><rect x="999" y="782" width="17" height="1" fill="rgb(0,0,0)"/><rect x="1024" y="782" width="17" height="1" fill="rgb(0,0,0)"/><rect x="999" y="783" width="17" height="1" fill="rgb(0,0,0)"/><rect x="1024" y="783" width="17" height="1" fill="rgb(0,0,0)"/><rect x="1006" y="784" width="10" height="1" fill="rgb(0,0,0)"/><rect x="1024" y="784" width="16" height="1" fill="rgb(0,0,0)"/><rect x="1007" y="785" width="9" height="1" fill="rgb(0,0,0)"/><rect x="1024" y="785" width="9" height="1" fill="rgb(0,0,0)"/><rect x="1007" y="786" width="9" height="1" fill="rgb(0,0,0)"/><rect x="1024" y="786" width="9" height="1" fill="rgb(0,0,0)"/><rect x="1007" y="787" width="9" height="1" fill="rgb(0,0,0)"/><rect x="1024" y="787" width="9" height="1" fill="rgb(0,0,0)"/><rect x="1007" y="788" width="9" height="1" fill="rgb(0,0,0)"/><rect x="1024" y="788" width="9" height="1" fill="rgb(0,0,0)"/><rect x="1007" y="789" width="9" height="1" fill="rgb(0,0,0)"/><rect x="1024" y="789" width="9" height="1" fill="rgb(0,0,0)"/><rect x="1007" y="790" width="9" height="1" fill="rgb(0,0,0)"/><rect x="1024" y="790" width="9" height="1" fill="rgb(0,0,0)"/><rect x="1007" y="791" width="9" height="1" fill="rgb(0,0,0)"/><rect x="1024" y="791" width="9" height="1" fill="rgb(0,0,0)"/><rect x="1007" y="792" width="9" height="1" fill="rgb(0,0,0)"/><rect x="1024" y="792" width="9" height="1" fill="rgb(0,0,0)"/><rect x="1007" y="793" width="9" height="1" fill="rgb(0,0,0)"/><rect x="1024" y="793" width="9" height="1" fill="rgb(0,0,0)"/><rect x="1007" y="794" width="9" height="1" fill="rgb(0,0,0)"/><rect x="1024" y="794" width="9" height="1" fill="rgb(0,0,0)"/><rect x="1007" y="795" width="9" height="1" fill="rgb(0,0,0)"/><rect x="1024" y="795" width="9" height="1" fill="rgb(0,0,0)"/><rect x="1007" y="796" width="9" height="1" fill="rgb(0,0,0)"/><rect x="1024" y="796" width="9" height="1" fill="rgb(0,0,0)"/><rect x="1007" y="797" width="9" height="1" fill="rgb(0,0,0)"/><rect x="1024" y="797" width="9" height="1" fill="rgb(0,0,0)"/><rect x="1007" y="798" width="9" height="1" fill="rgb(0,0,0)"/><rect x="1024" y="798" width="9" height="1" fill="rgb(0,0,0)"/><rect x="1007" y="799" width="9" height="1" fill="rgb(0,0,0)"/><rect x="1024" y="799" width="9" height="1" fill="rgb(0,0,0)"/><rect x="1007" y="800" width="9" height="1" fill="rgb(0,0,0)"/><rect x="1024" y="800" width="9" height="1" fill="rgb(0,0,0)"/><rect x="1007" y="801" width="9" height="1" fill="rgb(0,0,0)"/><rect x="1024" y="801" width="9" height="1" fill="rgb(0,0,0)"/><rect x="1007" y="802" width="9" height="1" fill="rgb(0,0,0)"/><rect x="1024" y="802" width="9" height="1" fill="rgb(0,0,0)"/><rect x="1007" y="803" width="9" height="1" fill="rgb(0,0,0)"/><rect x="1024" y="803" width="9" height="1" fill="rgb(0,0,0)"/><rect x="1007" y="804" width="9" height="1" fill="rgb(0,0,0)"/><rect x="1024" y="804" width="9" height="1" fill="rgb(0,0,0)"/><rect x="1007" y="805" width="9" height="1" fill="rgb(0,0,0)"/><rect x="1024" y="805" width="9" height="1" fill="rgb(0,0,0)"/><rect x="1007" y="806" width="9" height="1" fill="rgb(0,0,0)"/><rect x="1024" y="806" width="9" height="1" fill="rgb(0,0,0)"/><rect x="1007" y="807" width="9" height="1" fill="rgb(0,0,0)"/><rect x="1024" y="807" width="9" height="1" fill="rgb(0,0,0)"/><rect x="1007" y="808" width="9" height="1" fill="rgb(0,0,0)"/><rect x="1024" y="808" width="9" height="1" fill="rgb(0,0,0)"/><rect x="1007" y="809" width="9" height="1" fill="rgb(0,0,0)"/><rect x="1024" y="809" width="9" height="1" fill="rgb(0,0,0)"/><rect x="1007" y="810" width="9" height="1" fill="rgb(0,0,0)"/><rect x="1024" y="810" width="9" height="1" fill="rgb(0,0,0)"/><rect x="1007" y="811" width="9" height="1" fill="rgb(0,0,0)"/><rect x="1024" y="811" width="9" height="1" fill="rgb(0,0,0)"/><rect x="1007" y="812" width="9" height="1" fill="rgb(0,0,0)"/><rect x="1024" y="812" width="9" height="1" fill="rgb(0,0,0)"/><rect x="1007" y="813" width="9" height="1" fill="rgb(0,0,0)"/><rect x="1024" y="813" width="9" height="1" fill="rgb(0,0,0)"/><rect x="1007" y="814" width="9" height="1" fill="rgb(0,0,0)"/><rect x="1024" y="814" width="9" height="1" fill="rgb(0,0,0)"/><rect x="1007" y="815" width="9" height="1" fill="rgb(0,0,0)"/><rect x="1024" y="815" width="9" height="1" fill="rgb(0,0,0)"/><rect x="1007" y="816" width="9" height="1" fill="rgb(0,0,0)"/><rect x="1024" y="816" width="9" height="1" fill="rgb(0,0,0)"/><rect x="1007" y="817" width="9" height="1" fill="rgb(0,0,0)"/><rect x="1024" y="817" width="9" height="1" fill="rgb(0,0,0)"/><rect x="1007" y="818" width="9" height="1" fill="rgb(0,0,0)"/><rect x="1024" y="818" width="9" height="1" fill="rgb(0,0,0)"/><rect x="1007" y="819" width="9" height="1" fill="rgb(0,0,0)"/><rect x="1024" y="819" width="9" height="1" fill="rgb(0,0,0)"/><rect x="1007" y="820" width="9" height="1" fill="rgb(0,0,0)"/><rect x="1024" y="820" width="9" height="1" fill="rgb(0,0,0)"/><rect x="1007" y="821" width="9" height="1" fill="rgb(0,0,0)"/><rect x="1024" y="821" width="9" height="1" fill="rgb(0,0,0)"/><rect x="1007" y="822" width="9" height="1" fill="rgb(0,0,0)"/><rect x="1024" y="822" width="9" height="1" fill="rgb(0,0,0)"/><rect x="1007" y="823" width="9" height="1" fill="rgb(0,0,0)"/><rect x="1024" y="823" width="9" height="1" fill="rgb(0,0,0)"/><rect x="1007" y="824" width="9" height="1" fill="rgb(0,0,0)"/><rect x="1024" y="824" width="9" height="1" fill="rgb(0,0,0)"/><rect x="1007" y="825" width="9" height="1" fill="rgb(0,0,0)"/><rect x="1024" y="825" width="9" height="1" fill="rgb(0,0,0)"/><rect x="1007" y="826" width="9" height="1" fill="rgb(0,0,0)"/><rect x="1024" y="826" width="9" height="1" fill="rgb(0,0,0)"/><rect x="1007" y="827" width="9" height="1" fill="rgb(0,0,0)"/><rect x="1024" y="827" width="9" height="1" fill="rgb(0,0,0)"/><rect x="1007" y="828" width="9" height="1" fill="rgb(0,0,0)"/><rect x="1024" y="828" width="9" height="1" fill="rgb(0,0,0)"/><rect x="1007" y="829" width="9" height="1" fill="rgb(0,0,0)"/><rect x="1024" y="829" width="9" height="1" fill="rgb(0,0,0)"/><rect x="1007" y="830" width="9" height="1" fill="rgb(0,0,0)"/><rect x="1024" y="830" width="9" height="1" fill="rgb(0,0,0)"/><rect x="1007" y="831" width="9" height="1" fill="rgb(0,0,0)"/><rect x="1024" y="831" width="9" height="1" fill="rgb(0,0,0)"/><rect x="1007" y="832" width="9" height="1" fill="rgb(0,0,0)"/><rect x="1024" y="832" width="9" height="1" fill="rgb(0,0,0)"/><rect x="1007" y="833" width="9" height="1" fill="rgb(0,0,0)"/><rect x="1024" y="833" width="9" height="1" fill="rgb(0,0,0)"/><rect x="1007" y="834" width="9" height="1" fill="rgb(0,0,0)"/><rect x="1024" y="834" width="9" height="1" fill="rgb(0,0,0)"/><rect x="1007" y="835" width="9" height="1" fill="rgb(0,0,0)"/><rect x="1024" y="835" width="9" height="1" fill="rgb(0,0,0)"/><rect x="1007" y="836" width="9" height="1" fill="rgb(0,0,0)"/><rect x="1024" y="836" width="9" height="1" fill="rgb(0,0,0)"/><rect x="1007" y="837" width="9" height="1" fill="rgb(0,0,0)"/><rect x="1024" y="837" width="9" height="1" fill="rgb(0,0,0)"/><rect x="1007" y="838" width="9" height="1" fill="rgb(0,0,0)"/><rect x="1024" y="838" width="9" height="1" fill="rgb(0,0,0)"/><rect x="1007" y="839" width="9" height="1" fill="rgb(0,0,0)"/><rect x="1024" y="839" width="9" height="1" fill="rgb(0,0,0)"/><rect x="1007" y="840" width="9" height="1" fill="rgb(0,0,0)"/><rect x="1024" y="840" width="9" height="1" fill="rgb(0,0,0)"/><rect x="1007" y="841" width="9" height="1" fill="rgb(0,0,0)"/><rect x="1024" y="841" width="9" height="1" fill="rgb(0,0,0)"/><rect x="1007" y="842" width="9" height="1" fill="rgb(0,0,0)"/><rect x="1024" y="842" width="9" height="1" fill="rgb(0,0,0)"/><rect x="1007" y="843" width="9" height="1" fill="rgb(0,0,0)"/><rect x="1024" y="843" width="9" height="1" fill="rgb(0,0,0)"/><rect x="1007" y="844" width="9" height="1" fill="rgb(0,0,0)"/><rect x="1024" y="844" width="9" height="1" fill="rgb(0,0,0)"/><rect x="1007" y="845" width="9" height="1" fill="rgb(0,0,0)"/><rect x="1024" y="845" width="9" height="1" fill="rgb(0,0,0)"/><rect x="1007" y="846" width="9" height="1" fill="rgb(0,0,0)"/><rect x="1024" y="846" width="9" height="1" fill="rgb(0,0,0)"/><rect x="1007" y="847" width="9" height="1" fill="rgb(0,0,0)"/><rect x="1024" y="847" width="9" height="1" fill="rgb(0,0,0)"/><rect x="1007" y="848" width="9" height="1" fill="rgb(0,0,0)"/><rect x="1024" y="848" width="9" height="1" fill="rgb(0,0,0)"/><rect x="1007" y="849" width="9" height="1" fill="rgb(0,0,0)"/><rect x="1024" y="849" width="9" height="1" fill="rgb(0,0,0)"/><rect x="1007" y="850" width="9" height="1" fill="rgb(0,0,0)"/><rect x="1024" y="850" width="9" height="1" fill="rgb(0,0,0)"/><rect x="1007" y="851" width="9" height="1" fill="rgb(0,0,0)"/><rect x="1024" y="851" width="9" height="1" fill="rgb(0,0,0)"/><rect x="1007" y="852" width="9" height="1" fill="rgb(0,0,0)"/><rect x="1024" y="852" width="9" height="1" fill="rgb(0,0,0)"/><rect x="1007" y="853" width="9" height="1" fill="rgb(0,0,0)"/><rect x="1024" y="853" width="9" height="1" fill="rgb(0,0,0)"/><rect x="1007" y="854" width="9" height="1" fill="rgb(0,0,0)"/><rect x="1024" y="854" width="9" height="1" fill="rgb(0,0,0)"/><rect x="1007" y="855" width="9" height="1" fill="rgb(0,0,0)"/><rect x="1024" y="855" width="9" height="1" fill="rgb(0,0,0)"/><rect x="1007" y="856" width="9" height="1" fill="rgb(0,0,0)"/><rect x="1024" y="856" width="9" height="1" fill="rgb(0,0,0)"/><rect x="1007" y="857" width="9" height="1" fill="rgb(0,0,0)"/><rect x="1024" y="857" width="9" height="1" fill="rgb(0,0,0)"/><rect x="1007" y="858" width="9" height="1" fill="rgb(0,0,0)"/><rect x="1024" y="858" width="9" height="1" fill="rgb(0,0,0)"/><rect x="1007" y="859" width="9" height="1" fill="rgb(0,0,0)"/><rect x="1024" y="859" width="9" height="1" fill="rgb(0,0,0)"/><rect x="1007" y="860" width="9" height="1" fill="rgb(0,0,0)"/><rect x="1024" y="860" width="9" height="1" fill="rgb(0,0,0)"/><rect x="1007" y="861" width="9" height="1" fill="rgb(0,0,0)"/><rect x="1024" y="861" width="9" height="1" fill="rgb(0,0,0)"/><rect x="1007" y="862" width="9" height="1" fill="rgb(0,0,0)"/><rect x="1024" y="862" width="9" height="1" fill="rgb(0,0,0)"/><rect x="1007" y="863" width="9" height="1" fill="rgb(0,0,0)"/><rect x="1024" y="863" width="9" height="1" fill="rgb(0,0,0)"/><rect x="1007" y="864" width="9" height="1" fill="rgb(0,0,0)"/><rect x="1024" y="864" width="9" height="1" fill="rgb(0,0,0)"/><rect x="1007" y="865" width="9" height="1" fill="rgb(0,0,0)"/><rect x="1024" y="865" width="9" height="1" fill="rgb(0,0,0)"/><rect x="1007" y="866" width="9" height="1" fill="rgb(0,0,0)"/><rect x="1024" y="866" width="9" height="1" fill="rgb(0,0,0)"/><rect x="1007" y="867" width="9" height="1" fill="rgb(0,0,0)"/><rect x="1024" y="867" width="9" height="1" fill="rgb(0,0,0)"/><rect x="1007" y="868" width="9" height="1" fill="rgb(0,0,0)"/><rect x="1024" y="868" width="9" height="1" fill="rgb(0,0,0)"/><rect x="1007" y="869" width="26" height="1" fill="rgb(0,0,0)"/><rect x="1007" y="870" width="26" height="1" fill="rgb(0,0,0)"/><rect x="1007" y="871" width="26" height="1" fill="rgb(0,0,0)"/><rect x="1007" y="872" width="26" height="1" fill="rgb(0,0,0)"/><rect x="1007" y="873" width="26" height="1" fill="rgb(0,0,0)"/><rect x="1007" y="874" width="26" height="1" fill="rgb(0,0,0)"/><rect x="1007" y="875" width="26" height="1" fill="rgb(0,0,0)"/><rect x="1007" y="876" width="26" height="1" fill="rgb(0,0,0)"/><rect x="1008" y="877" width="22" height="1" fill="rgb(0,0,0)"/><rect x="1011" y="878" width="18" height="1" fill="rgb(0,0,0)"/><rect x="1011" y="879" width="18" height="1" fill="rgb(0,0,0)"/><rect x="1011" y="880" width="18" height="1" fill="rgb(0,0,0)"/><rect x="1011" y="881" width="18" height="1" fill="rgb(0,0,0)"/><rect x="1011" y="882" width="18" height="1" fill="rgb(0,0,0)"/><rect x="1011" y="883" width="18" height="1" fill="rgb(0,0,0)"/><rect x="1011" y="884" width="18" height="1" fill="rgb(0,0,0)"/><rect x="1011" y="885" width="18" height="1" fill="rgb(0,0,0)"/><rect x="1011" y="886" width="18" height="1" fill="rgb(0,0,0)"/><rect x="1016" y="887" width="8" height="1" fill="rgb(0,0,0)"/><rect x="1016" y="888" width="8" height="1" fill="rgb(0,0,0)"/><rect x="1016" y="889" width="8" height="1" fill="rgb(0,0,0)"/><rect x="1016" y="890" width="8" height="1" fill="rgb(0,0,0)"/><rect x="1016" y="891" width="8" height="1" fill="rgb(0,0,0)"/><rect x="1016" y="892" width="8" height="1" fill="rgb(0,0,0)"/><rect x="1016" y="893" width="8" height="1" fill="rgb(0,0,0)"/><rect x="1016" y="894" width="8" height="1" fill="rgb(0,0,0)"/><rect x="1016" y="895" width="8" height="1" fill="rgb(0,0,0)"/><rect x="1016" y="896" width="8" height="1" fill="rgb(0,0,0)"/><rect x="1016" y="897" width="8" height="1" fill="rgb(0,0,0)"/><rect x="1016" y="898" width="8" height="1" fill="rgb(0,0,0)"/><rect x="1016" y="899" width="8" height="1" fill="rgb(0,0,0)"/></svg>