<svg xmlns="http://www.w3.org/2000/svg" width="2040" height="1500" viewBox="0 0 2040 1500" shape-rendering="crispEdges"><rect x="1010" y="592" width="20" height="1" fill="rgb(0,0,0)"/><rect x="1010" y="593" width="20" height="1" fill="rgb(0,0,0)"/><rect x="1010" y="594" width="20" height="1" fill="rgb(0,0,0)"/><rect x="1010" y="595" width="20" height="1" fill="rgb(0,0,0)"/><rect x="1010" y="596" width="20" height="1" fill="rgb(0,0,0)"/><rect x="1010" y="597" width="20" height="1" fill="rgb(0,0,0)"/><rect x="1010" y="598" width="20" height="1" fill="rgb(0,0,0)"/><rect x="1009" y="599" width="22" height="1" fill="rgb(0,0,0)"/><rect x="1002" y="600" width="36" height="1" fill="rgb(0,0,0)"/><rect x="1002" y="601" width="36" height="1" fill="rgb(0,0,0)"/><rect x="1002" y="602" width="10" height="1" fill="rgb(0,0,0)"/><rect x="1017" y="602" width="6" height="1" fill="rgb(0,0,0)"/><rect x="1028" y="602" width="10" height="1" fill="rgb(0,0,0)"/><rect x="1002" y="603" width="10" height="1" fill="rgb(0,0,0)"/><rect x="1017" y="603" width="6" height="1" fill="rgb(0,0,0)"/><rect x="1028" y="603" width="10" height="1" fill="rgb(0,0,0)"/><rect x="1002" y="604" width="10" height="1" fill="rgb(0,0,0)"/><rect x="1016" y="604" width="7" height="1" fill="rgb(0,0,0)"/><rect x="1028" y="604" width="10" height="1" fill="rgb(0,0,0)"/><rect x="1002" y="605" width="10" height="1" fill="rgb(0,0,0)"/><rect x="1016" y="605" width="8" height="1" fill="rgb(0,0,0)"/><rect x="1028" y="605" width="10" height="1" fill="rgb(0,0,0)"/><rect x="1002" y="606" width="10" height="1" fill="rgb(0,0,0)"/><rect x="1016" y="606" width="8" height="1" fill="rgb(0,0,0)"/><rect x="1028" y="606" width="10" height="1" fill="rgb(0,0,0)"/><rect x="1002" y="607" width="10" height="1" fill="rgb(0,0,0)"/><rect x="1016" y="607" width="8" height="1" fill="rgb(0,0,0)"/><rect x="1028" y="607" width="10" height="1" fill="rgb(0,0,0)"/><rect x="1002" y="608" width="10" height="1" fill="rgb(0,0,0)"/><rect x="1016" y="608" width="8" height="1" fill="rgb(0,0,0)"/><rect x="1028" y="608" width="10" height="1" fill="rgb(0,0,0)"/><rect x="1002" y="609" width="10" height="1" fill="rgb(0,0,0)"/><rect x="1028" y="609" width="10" height="1" fill="rgb(0,0,0)"/><rect x="1002" y="610" width="10" height="1" fill="rgb(0,0,0)"/><rect x="1028" y="610" width="10" height="1" fill="rgb(0,0,0)"/><rect x="1002" y="611" width="10" height="1" fill="rgb(0,0,0)"/><rect x="1028" y="611" width="10" height="1" fill="rgb(0,0,0)"/><rect x="1002" y="612" width="10" height="1" fill="rgb(0,0,0)"/><rect x="1028" y="612" width="10" height="1" fill="rgb(0,0,0)"/><rect x="1002" y="613" width="10" height="1" fill="rgb(0,0,0)"/><rect x="1028" y="613" width="10" height="1" fill="rgb(0,0,0)"/><rect x="1002" y="614" width="10" height="1" fill="rgb(0,0,0)"/><rect x="1028" y="614" width="10" height="1" fill="rgb(0,0,0)"/><rect x="1002" y="615" width="10" height="1" fill="rgb(0,0,0)"/><rect x="1028" y="615" width="10" height="1" fill="rgb(0,0,0)"/><rect x="1002" y="616" width="10" height="1" fill="rgb(0,0,0)"/><rect x="1028" y="616" width="10" height="1" fill="rgb(0,0,0)"/><rect x="1002" y="617" width="36" height="1" fill="rgb(0,0,0)"/><rect x="1010" y="618" width="20" height="1" fill="rgb(0,0,0)"/><rect x="1010" y="619" width="20" height="1" fill="rgb(0,0,0)"/><rect x="1010" y="620" width="20" height="1" fill="rgb(0,0,0)"/><rect x="1010" y="621" width="20" height="1" fill="rgb(0,0,0)"/><rect x="1010" y="622" width="20" height="1" fill="rgb(0,0,0)"/><rect x="1010" y="623" width="20" height="1" fill="rgb(0,0,0)"/><rect x="1010" y="624" width="20" height="1" fill="rgb(0,0,0)"/><rect x="1010" y="625" width="20" height="1" fill="rgb(0,0,0)"/><rect x="1010" y="626" width="20" height="1" fill="rgb(0,0,0)"/><rect x="1010" y="627" width="20" height="1" fill="rgb(0,0,0)"/><rect x="1010" y="628" width="20" height="1" fill="rgb(0,0,0)"/><rect x="1010" y="629" width="20" height="1" fill="rgb(0,0,0)"/><rect x="1010" y="630" width="20" height="1" fill="rgb(0,0,0)"/><rect x="1010" y="631" width="20" height="1" fill="rgb(0,0,0)"/><rect x="1010" y="632" width="20" height="1" fill="rgb(0,0,0)"/><rect x="1010" y="633" width="20" height="1" fill="rgb(0,0,0)"/><rect x="1010" y="634" width="20" height="1" fill="rgb(0,0,0)"/><rect x="1010" y="635" width="20" height="1" fill="rgb(0,0,0)"/><rect x="1010" y="636" width="20" height="1" fill="rgb(0,0,0)"/><rect x="1010" y="637" width="20" height="1" fill="rgb(0,0,0)"/><rect x="1010" y="638" width="20" height="1" fill="rgb(0,0,0)"/><rect x="1010" y="639" width="20" height="1" fill="rgb(0,0,0)"/><rect x="1010" y="640" width="20" height="1" fill="rgb(0,0,0)"/><rect x="1010" y="641" width="20" height="1" fill="rgb(0,0,0)"/><rect x="1010" y="642" width="20" height="1" fill="rgb(0,0,0)"/><rect x="1010" y="643" width="21" height="1" fill="rgb(0,0,0)"/><rect x="1010" y="644" width="21" height="1" fill="rgb(0,0,0)"/><rect x="1010" y="645" width="21" height="1" fill="rgb(0,0,0)"/><rect x="1010" y="646" width="21" height="1" fill="rgb(0,0,0)"/><rect x="1010" y="647" width="21" height="1" fill="rgb(0,0,0)"/><rect x="1010" y="648" width="21" height="1" fill="rgb(0,0,0)"/><rect x="1010" y="649" width="21" height="1" fill="rgb(0,0,0)"/><rect x="1010" y="650" width="21" height="1" fill="rgb(0,0,0)"/><rect x="1010" y="651" width="21" height="1" fill="rgb(0,0,0)"/><rect x="1010" y="652" width="21" height="1" fill="rgb(0,0,0)"/><rect x="1010" y="653" width="21" height="1" fill="rgb(0,0,0)"/><rect x="1010" y="654" width="21" height="1" fill="rgb(0,0,0)"/><rect x="1010" y="655" width="21" height="1" fill="rgb(0,0,0)"/><rect x="1010" y="656" width="21" height="1" fill="rgb(0,0,0)"/><rect x="1008" y="657" width="24" height="1" fill="rgb(0,0,0)"/><rect x="1007" y="658" width="25" height="1" fill="rgb(0,0,0)"/><rect x="1007" y="659" width="25" height="1" fill="rgb(0,0,0)"/><rect x="1007" y="660" width="25" height="1" fill="rgb(0,0,0)"/><rect x="1007" y="661" width="25" height="1" fill="rgb(0,0,0)"/><rect x="1007" y="662" width="25" height="1" fill="rgb(0,0,0)"/><rect x="1007" y="663" width="25" height="1" fill="rgb(0,0,0)"/><rect x="1007" y="664" width="25" height="1" fill="rgb(0,0,0)"/><rect x="1008" y="665" width="24" height="1" fill="rgb(0,0,0)"/><rect x="1008" y="666" width="24" height="1" fill="rgb(0,0,0)"/><rect x="1008" y="667" width="24" height="1" fill="rgb(0,0,0)"/><rect x="1008" y="668" width="24" height="1" fill="rgb(0,0,0)"/><rect x="1008" y="669" width="24" height="1" fill="rgb(0,0,0)"/><rect x="1008" y="670" width="24" height="1" fill="rgb(0,0,0)"/><rect x="1008" y="671" width="24" height="1" fill="rgb(0,0,0)"/><rect x="1008" y="672" width="24" height="1" fill="rgb(0,0,0)"/><rect x="1008" y="673" width="24" height="1" fill="rgb(0,0,0)"/><rect x="1008" y="674" width="24" height="1" fill="rgb(0,0,0)"/><rect x="967" y="675" width="12" height="1" fill="rgb(0,0,0)"/><rect x="1007" y="675" width="25" height="1" fill="rgb(0,0,0)"/><rect x="1060" y="675" width="13" height="1" fill="rgb(0,0,0)"/><rect x="967" y="676" width="12" height="1" fill="rgb(0,0,0)"/><rect x="1007" y="676" width="26" height="1" fill="rgb(0,0,0)"/><rect x="1060" y="676" width="14" height="1" fill="rgb(0,0,0)"/><rect x="967" y="677" width="12" height="1" fill="rgb(0,0,0)"/><rect x="1007" y="677" width="26" height="1" fill="rgb(0,0,0)"/><rect x="1060" y="677" width="14" height="1" fill="rgb(0,0,0)"/><rect x="967" y="678" width="12" height="1" fill="rgb(0,0,0)"/><rect x="1007" y="678" width="26" height="1" fill="rgb(0,0,0)"/><rect x="1060" y="678" width="14" height="1" fill="rgb(0,0,0)"/><rect x="967" y="679" width="12" height="1" fill="rgb(0,0,0)"/><rect x="1007" y="679" width="26" height="1" fill="rgb(0,0,0)"/><rect x="1060" y="679" width="14" height="1" fill="rgb(0,0,0)"/><rect x="967" y="680" width="12" height="1" fill="rgb(0,0,0)"/><rect x="1007" y="680" width="26" height="1" fill="rgb(0,0,0)"/><rect x="1060" y="680" width="14" height="1" fill="rgb(0,0,0)"/><rect x="966" y="681" width="14" height="1" fill="rgb(0,0,0)"/><rect x="1007" y="681" width="26" height="1" fill="rgb(0,0,0)"/><rect x="1060" y="681" width="14" height="1" fill="rgb(0,0,0)"/><rect x="961" y="682" width="119" height="1" fill="rgb(0,0,0)"/><rect x="961" y="683" width="119" height="1" fill="rgb(0,0,0)"/><rect x="961" y="684" width="119" height="1" fill="rgb(0,0,0)"/><rect x="961" y="685" width="119" height="1" fill="rgb(0,0,0)"/><rect x="961" y="686" width="119" height="1" fill="rgb(0,0,0)"/><rect x="961" y="687" width="119" height="1" fill="rgb(0,0,0)"/><rect x="961" y="688" width="119" height="1" fill="rgb(0,0,0)"/><rect x="961" y="689" width="119" height="1" fill="rgb(0,0,0)"/><rect x="961" y="690" width="119" height="1" fill="rgb(0,0,0)"/><rect x="961" y="691" width="119" height="1" fill="rgb(0,0,0)"/><rect x="961" y="692" width="119" height="1" fill="rgb(0,0,0)"/><rect x="961" y="693" width="119" height="1" fill="rgb(0,0,0)"/><rect x="967" y="694" width="12" height="1" fill="rgb(0,0,0)"/><rect x="999" y="694" width="11" height="1" fill="rgb(0,0,0)"/><rect x="1015" y="694" width="9" height="1" fill="rgb(0,0,0)"/><rect x="1029" y="694" width="12" height="1" fill="rgb(0,0,0)"/><rect x="1060" y="694" width="14" height="1" fill="rgb(0,0,0)"/><rect x="967" y="695" width="13" height="1" fill="rgb(0,0,0)"/><rect x="999" y="695" width="11" height="1" fill="rgb(0,0,0)"/><rect x="1015" y="695" width="9" height="1" fill="rgb(0,0,0)"/><rect x="1029" y="695" width="12" height="1" fill="rgb(0,0,0)"/><rect x="1060" y="695" width="14" height="1" fill="rgb(0,0,0)"/><rect x="967" y="696" width="12" height="1" fill="rgb(0,0,0)"/><rect x="999" y="696" width="11" height="1" fill="rgb(0,0,0)"/><rect x="1015" y="696" width="9" height="1" fill="rgb(0,0,0)"/><rect x="1029" y="696" width="12" height="1" fill="rgb(0,0,0)"/><rect x="1060" y="696" width="14" height="1" fill="rgb(0,0,0)"/><rect x="967" y="697" width="12" height="1" fill="rgb(0,0,0)"/><rect x="999" y="697" width="11" height="1" fill="rgb(0,0,0)"/><rect x="1016" y="697" width="8" height="1" fill="rgb(0,0,0)"/><rect x="1029" y="697" width="12" height="1" fill="rgb(0,0,0)"/><rect x="1060" y="697" width="14" height="1" fill="rgb(0,0,0)"/><rect x="967" y="698" width="12" height="1" fill="rgb(0,0,0)"/><rect x="999" y="698" width="11" height="1" fill="rgb(0,0,0)"/><rect x="1029" y="698" width="12" height="1" fill="rgb(0,0,0)"/><rect x="1060" y="698" width="14" height="1" fill="rgb(0,0,0)"/><rect x="967" y="699" width="12" height="1" fill="rgb(0,0,0)"/><rect x="999" y="699" width="12" height="1" fill="rgb(0,0,0)"/><rect x="1029" y="699" width="12" height="1" fill="rgb(0,0,0)"/><rect x="1060" y="699" width="14" height="1" fill="rgb(0,0,0)"/><rect x="967" y="700" width="12" height="1" fill="rgb(0,0,0)"/><rect x="999" y="700" width="17" height="1" fill="rgb(0,0,0)"/><rect x="1024" y="700" width="17" height="1" fill="rgb(0,0,0)"/><rect x="1060" y="700" width="14" height="1" fill="rgb(0,0,0)"/></svg>